{
.appVersion = "1075";
DisplayStrings = (
I,
"XJINLTPV\012SINNYMW\012",
C
);
date = "2017-11-14 14:59:33 +0000";
familyName = "playboy-fin";
fontMaster = (
{
ascender = 800;
capHeight = 700;
descender = -200;
id = "8163A9A7-FEB5-4584-B00B-7D9977804228";
visible = 1;
xHeight = 500;
}
);
glyphs = (
{
glyphname = A;
lastChange = "2017-12-03 10:48:45 +0000";
layers = (
{
guideLines = (
{
angle = 270;
position = "{27, 33}";
},
{
angle = 270;
position = "{106, 33}";
}
);
layerId = "8163A9A7-FEB5-4584-B00B-7D9977804228";
paths = (
{
closed = 1;
nodes = (
"269 218 OFFCURVE",
"327 0 OFFCURVE",
"327 0 CURVE SMOOTH",
"352 0 LINE",
"352 0 OFFCURVE",
"244 418 OFFCURVE",
"204 476 CURVE SMOOTH",
"170 526 OFFCURVE",
"144 503 OFFCURVE",
"121 549 CURVE SMOOTH",
"108 575 OFFCURVE",
"74 641 OFFCURVE",
"70 649 CURVE SMOOTH",
"59 670 OFFCURVE",
"59 684 OFFCURVE",
"59 700 CURVE",
"40 700 LINE",
"40 700 OFFCURVE",
"40 670 OFFCURVE",
"51 649 CURVE SMOOTH",
"55 641 OFFCURVE",
"89 575 OFFCURVE",
"102 549 CURVE SMOOTH",
"126 503 OFFCURVE",
"151 526 OFFCURVE",
"185 476 CURVE SMOOTH",
"194 463 OFFCURVE",
"207 431 OFFCURVE",
"221 389 CURVE",
"221 389 LINE",
"80 0 LINE",
"106 0 LINE",
"230 349 LINE"
);
}
);
width = 392;
},
{
associatedMasterId = "8163A9A7-FEB5-4584-B00B-7D9977804228";
guideLines = (
{
angle = 270;
position = "{80, 33}";
},
{
angle = 270;
position = "{159, 33}";
}
);
layerId = "DCA8BC2B-4ABA-474E-AAEF-3E8418768075";
name = "Dec 3 17, 11:47";
paths = (
{
closed = 1;
nodes = (
"406 660 OFFCURVE",
"416 511 OFFCURVE",
"389 461 CURVE SMOOTH",
"372 430 OFFCURVE",
"335 402 OFFCURVE",
"318 380 CURVE SMOOTH",
"282 334 OFFCURVE",
"324 304 OFFCURVE",
"362 261 CURVE SMOOTH",
"400 218 OFFCURVE",
"402 180 OFFCURVE",
"404 104 CURVE",
"404 0 LINE",
"380 0 LINE",
"380 104 LINE",
"378 180 OFFCURVE",
"376 218 OFFCURVE",
"338 261 CURVE SMOOTH",
"300 304 OFFCURVE",
"258 334 OFFCURVE",
"294 380 CURVE SMOOTH",
"311 402 OFFCURVE",
"348 430 OFFCURVE",
"365 461 CURVE SMOOTH",
"392 511 OFFCURVE",
"382 660 OFFCURVE",
"383 700 CURVE",
"407 700 LINE"
);
}
);
visible = 1;
width = 445;
},
{
associatedMasterId = "8163A9A7-FEB5-4584-B00B-7D9977804228";
guideLines = (
{
angle = 270;
position = "{80, 33}";
},
{
angle = 270;
position = "{159, 33}";
}
);
layerId = "BEBEBF25-5C1C-4162-BB68-6FD868A3F8E6";
name = "Dec 3 17, 11:47";
paths = (
{
closed = 1;
nodes = (
"295 146 OFFCURVE",
"333 0 OFFCURVE",
"333 0 CURVE SMOOTH",
"405 0 LINE",
"405 0 OFFCURVE",
"297 418 OFFCURVE",
"257 476 CURVE SMOOTH",
"223 526 OFFCURVE",
"197 503 OFFCURVE",
"174 549 CURVE SMOOTH",
"161 575 OFFCURVE",
"127 641 OFFCURVE",
"123 649 CURVE SMOOTH",
"112 670 OFFCURVE",
"112 684 OFFCURVE",
"112 700 CURVE",
"40 700 LINE",
"40 700 OFFCURVE",
"40 670 OFFCURVE",
"51 649 CURVE SMOOTH",
"55 641 OFFCURVE",
"89 575 OFFCURVE",
"102 549 CURVE SMOOTH",
"126 503 OFFCURVE",
"151 526 OFFCURVE",
"185 476 CURVE SMOOTH",
"194 463 OFFCURVE",
"207 431 OFFCURVE",
"221 389 CURVE",
"221 389 LINE",
"80 0 LINE",
"159 0 LINE",
"256 277 LINE"
);
}
);
width = 445;
}
);
unicode = 0041;
},
{
glyphname = B;
lastChange = "2017-11-25 16:05:52 +0000";
layers = (
{
layerId = "8163A9A7-FEB5-4584-B00B-7D9977804228";
paths = (
{
closed = 1;
nodes = (
"132 460 OFFCURVE",
"147 463 OFFCURVE",
"179 480 CURVE SMOOTH",
"212 498 OFFCURVE",
"316 563 OFFCURVE",
"326 569 CURVE SMOOTH",
"429 631 OFFCURVE",
"382 513 OFFCURVE",
"331 444 CURVE",
"319 421 OFFCURVE",
"296 406 OFFCURVE",
"301 384 CURVE SMOOTH",
"313 330 OFFCURVE",
"452 321 OFFCURVE",
"465 268 CURVE SMOOTH",
"473 236 OFFCURVE",
"449 220 OFFCURVE",
"414 189 CURVE SMOOTH",
"267 59 OFFCURVE",
"143 105 OFFCURVE",
"29 84 CURVE",
"43 -2 LINE",
"158 20 OFFCURVE",
"291 -32 OFFCURVE",
"429 103 CURVE SMOOTH",
"557 228 OFFCURVE",
"610 280 OFFCURVE",
"484 312 CURVE SMOOTH",
"418 329 OFFCURVE",
"393 373 OFFCURVE",
"424 436 CURVE SMOOTH",
"447 482 OFFCURVE",
"549 669 OFFCURVE",
"444 703 CURVE SMOOTH",
"410 714 OFFCURVE",
"410 719 OFFCURVE",
"364 696 CURVE SMOOTH",
"334 681 OFFCURVE",
"78 516 OFFCURVE",
"70 513 CURVE SMOOTH",
"29 498 OFFCURVE",
"51 430 OFFCURVE",
"86 403 CURVE SMOOTH",
"119 377 OFFCURVE",
"190 336 OFFCURVE",
"215 299 CURVE",
"267 231 LINE",
"343 266 LINE",
"292 335 LINE",
"266 371 OFFCURVE",
"196 413 OFFCURVE",
"163 439 CURVE"
);
}
);
width = 621;
},
{
associatedMasterId = "8163A9A7-FEB5-4584-B00B-7D9977804228";
backgroundImage = {
crop = "{{0, 0}, {536, 738}}";
imagePath = "../Desktop/G _ B.png";
locked = "1";
transform = "{3.1, 0, 0, 3.1, -275, -508}";
};
layerId = "643D18EF-F2FF-4806-9376-B0C3F55AB0EC";
name = "Nov 25 17, 17:00";
paths = (
{
closed = 1;
nodes = (
"-612 48 LINE",
"-613 134 LINE",
"-613 203 OFFCURVE",
"-597 241 OFFCURVE",
"-597 283 CURVE SMOOTH",
"-597 309 OFFCURVE",
"-642 359 OFFCURVE",
"-661 388 CURVE SMOOTH",
"-756 534 OFFCURVE",
"-692 643 OFFCURVE",
"-692 748 CURVE",
"-613 748 LINE",
"-613 643 OFFCURVE",
"-677 534 OFFCURVE",
"-582 388 CURVE SMOOTH",
"-563 359 OFFCURVE",
"-518 309 OFFCURVE",
"-518 283 CURVE SMOOTH",
"-518 241 OFFCURVE",
"-534 203 OFFCURVE",
"-534 134 CURVE",
"-534 127 OFFCURVE",
"-533 117 OFFCURVE",
"-524 122 CURVE SMOOTH",
"-515 127 OFFCURVE",
"-367 154 OFFCURVE",
"-334 152 CURVE",
"-334 76 LINE",
"-372 76 OFFCURVE",
"-484 48 OFFCURVE",
"-534 48 CURVE"
);
},
{
closed = 0;
nodes = (
"266 711 LINE",
"275 705 OFFCURVE",
"360 529 OFFCURVE",
"363 505 CURVE SMOOTH",
"366 481 OFFCURVE",
"357 459 OFFCURVE",
"372 444 CURVE SMOOTH",
"387 429 OFFCURVE",
"453 438 OFFCURVE",
"472 444 CURVE SMOOTH",
"538 465 OFFCURVE",
"540 456 OFFCURVE",
"553 444 CURVE SMOOTH",
"575 424 OFFCURVE",
"553 326 OFFCURVE",
"540 259 CURVE SMOOTH",
"507 88 OFFCURVE",
"382 57 OFFCURVE",
"308 -18 CURVE",
"252 38 LINE",
"326 112 OFFCURVE",
"443 143 OFFCURVE",
"484 315 CURVE SMOOTH",
"494 357 OFFCURVE",
"502 381 OFFCURVE",
"480 401 CURVE SMOOTH",
"467 413 OFFCURVE",
"465 422 OFFCURVE",
"399 401 CURVE SMOOTH",
"380 395 OFFCURVE",
"314 386 OFFCURVE",
"299 401 CURVE SMOOTH",
"284 416 OFFCURVE",
"293 438 OFFCURVE",
"290 462 CURVE SMOOTH",
"287 486 OFFCURVE",
"202 662 OFFCURVE",
"193 668 CURVE SMOOTH"
);
}
);
visible = 1;
width = 600;
}
);
unicode = 0042;
},
{
glyphname = C;
lastChange = "2017-12-03 14:09:28 +0000";
layers = (
{
guideLines = (
{
angle = 270;
position = "{7, 477}";
}
);
layerId = "8163A9A7-FEB5-4584-B00B-7D9977804228";
paths = (
{
closed = 1;
nodes = (
"342 628 OFFCURVE",
"395 676 OFFCURVE",
"267 676 CURVE SMOOTH",
"172 676 OFFCURVE",
"79 566 OFFCURVE",
"74 462 CURVE",
"74 452 OFFCURVE",
"74 443 OFFCURVE",
"74 434 CURVE SMOOTH",
"74 329 OFFCURVE",
"42 182 OFFCURVE",
"107 82 CURVE",
"167 -8 OFFCURVE",
"376 13 OFFCURVE",
"442 134 CURVE",
"454 134 OFFCURVE",
"494 139 OFFCURVE",
"494 139 CURVE",
"419 0 OFFCURVE",
"160 -53 OFFCURVE",
"91 49 CURVE",
"17 164 OFFCURVE",
"42 336 OFFCURVE",
"53 455 CURVE SMOOTH",
"54 465 OFFCURVE",
"54 476 OFFCURVE",
"54 487 CURVE",
"61 607 OFFCURVE",
"166 712 OFFCURVE",
"275 712 CURVE SMOOTH",
"422 712 OFFCURVE",
"368 663 OFFCURVE",
"476 624 CURVE",
"476 624 OFFCURVE",
"443 600 OFFCURVE",
"433 594 CURVE"
);
}
);
width = 534;
},
{
associatedMasterId = "8163A9A7-FEB5-4584-B00B-7D9977804228";
layerId = "BEFEC1FD-E0D6-40DE-9C84-9666F5940207";
name = "Dec 2 17, 16:15";
paths = (
{
closed = 1;
nodes = (
"-276 27 OFFCURVE",
"-127 37 OFFCURVE",
"-77 10 CURVE SMOOTH",
"-46 -7 OFFCURVE",
"-18 -44 OFFCURVE",
"4 -61 CURVE SMOOTH",
"50 -97 OFFCURVE",
"80 -56 OFFCURVE",
"124 -18 CURVE SMOOTH",
"167 20 OFFCURVE",
"205 22 OFFCURVE",
"281 24 CURVE",
"385 24 LINE",
"385 0 LINE",
"281 0 LINE",
"205 -2 OFFCURVE",
"167 -4 OFFCURVE",
"124 -42 CURVE SMOOTH",
"81 -80 OFFCURVE",
"50 -121 OFFCURVE",
"4 -85 CURVE SMOOTH",
"-18 -68 OFFCURVE",
"-46 -31 OFFCURVE",
"-77 -14 CURVE SMOOTH",
"-127 13 OFFCURVE",
"-276 3 OFFCURVE",
"-316 4 CURVE",
"-316 28 LINE"
);
}
);
width = 547;
},
{
associatedMasterId = "8163A9A7-FEB5-4584-B00B-7D9977804228";
guideLines = (
{
angle = 270;
position = "{19, 477}";
}
);
layerId = "B62C2CC1-60BD-42B7-9022-0FC6E0B23FAF";
name = "Dec 3 17, 15:03";
paths = (
{
closed = 1;
nodes = (
"380 663 OFFCURVE",
"434 712 OFFCURVE",
"287 712 CURVE SMOOTH",
"178 712 OFFCURVE",
"73 607 OFFCURVE",
"66 487 CURVE",
"66 476 OFFCURVE",
"66 465 OFFCURVE",
"65 455 CURVE SMOOTH",
"54 336 OFFCURVE",
"29 164 OFFCURVE",
"103 49 CURVE",
"172 -53 OFFCURVE",
"431 0 OFFCURVE",
"506 139 CURVE",
"506 139 OFFCURVE",
"466 134 OFFCURVE",
"454 134 CURVE",
"405 16 OFFCURVE",
"164 -6 OFFCURVE",
"116 59 CURVE",
"41 175 OFFCURVE",
"66 341 OFFCURVE",
"78 425 CURVE SMOOTH",
"79 432 OFFCURVE",
"79 440 OFFCURVE",
"79 448 CURVE",
"84 533 OFFCURVE",
"171 687 OFFCURVE",
"249 687 CURVE SMOOTH",
"353 687 OFFCURVE",
"380 655 OFFCURVE",
"457 603 CURVE",
"488 624 LINE"
);
}
);
width = 547;
},
{
associatedMasterId = "8163A9A7-FEB5-4584-B00B-7D9977804228";
guideLines = (
{
angle = 270;
position = "{19, 477}";
}
);
layerId = "5090B7A0-2BCF-4517-9490-A1EC3351DED8";
name = "Dec 3 17, 15:08";
paths = (
{
closed = 0;
nodes = (
"454 134 LINE",
"466 134 OFFCURVE",
"506 139 OFFCURVE",
"506 139 CURVE",
"431 0 OFFCURVE",
"172 -53 OFFCURVE",
"103 49 CURVE",
"29 164 OFFCURVE",
"54 336 OFFCURVE",
"65 455 CURVE SMOOTH",
"66 465 OFFCURVE",
"66 476 OFFCURVE",
"66 487 CURVE",
"73 607 OFFCURVE",
"178 712 OFFCURVE",
"287 712 CURVE SMOOTH",
"434 712 OFFCURVE",
"380 663 OFFCURVE",
"488 624 CURVE",
"488 624 OFFCURVE",
"455 600 OFFCURVE",
"445 594 CURVE"
);
},
{
closed = 0;
nodes = (
"1092 717 LINE",
"1001 751 OFFCURVE",
"1047 794 OFFCURVE",
"919 794 CURVE SMOOTH",
"824 794 OFFCURVE",
"731 702 OFFCURVE",
"726 598 CURVE",
"726 588 OFFCURVE",
"726 579 OFFCURVE",
"726 570 CURVE SMOOTH",
"726 465 OFFCURVE",
"694 318 OFFCURVE",
"759 218 CURVE",
"819 128 OFFCURVE",
"1043 174 OFFCURVE",
"1109 295 CURVE"
);
},
{
closed = 1;
nodes = (
"81 986 OFFCURVE",
"91 837 OFFCURVE",
"64 787 CURVE SMOOTH",
"47 756 OFFCURVE",
"10 728 OFFCURVE",
"-7 706 CURVE SMOOTH",
"-43 660 OFFCURVE",
"-1 630 OFFCURVE",
"37 587 CURVE SMOOTH",
"75 544 OFFCURVE",
"77 506 OFFCURVE",
"79 430 CURVE",
"79 326 LINE",
"55 326 LINE",
"55 430 LINE",
"53 506 OFFCURVE",
"51 544 OFFCURVE",
"13 587 CURVE SMOOTH",
"-25 630 OFFCURVE",
"-67 660 OFFCURVE",
"-31 706 CURVE SMOOTH",
"-14 728 OFFCURVE",
"23 756 OFFCURVE",
"40 787 CURVE SMOOTH",
"67 837 OFFCURVE",
"57 986 OFFCURVE",
"58 1026 CURVE",
"82 1026 LINE"
);
}
);
visible = 1;
width = 547;
}
);
unicode = 0043;
},
{
glyphname = D;
lastChange = "2017-12-02 16:26:31 +0000";
layers = (
{
layerId = "8163A9A7-FEB5-4584-B00B-7D9977804228";
paths = (
{
closed = 1;
nodes = (
"86 0 LINE",
"86 102 OFFCURVE",
"111 148 OFFCURVE",
"78 205 CURVE SMOOTH",
"45 262 OFFCURVE",
"51 304 OFFCURVE",
"75 402 CURVE SMOOTH",
"99 500 OFFCURVE",
"139 614 OFFCURVE",
"139 700 CURVE",
"124 700 LINE",
"124 614 OFFCURVE",
"84 500 OFFCURVE",
"60 402 CURVE SMOOTH",
"36 304 OFFCURVE",
"30 262 OFFCURVE",
"63 205 CURVE SMOOTH",
"96 148 OFFCURVE",
"67 136 OFFCURVE",
"51 0 CURVE"
);
},
{
closed = 1;
nodes = (
"90 0 OFFCURVE",
"160 -13 OFFCURVE",
"207 89 CURVE",
"219 113 OFFCURVE",
"261 223 OFFCURVE",
"275 273 CURVE",
"289 315 OFFCURVE",
"314 441 OFFCURVE",
"314 469 CURVE SMOOTH",
"314 492 OFFCURVE",
"314 517 OFFCURVE",
"265 562 CURVE SMOOTH",
"237 588 OFFCURVE",
"175 665 OFFCURVE",
"139 700 CURVE",
"124 700 LINE",
"160 665 OFFCURVE",
"221 567 OFFCURVE",
"249 541 CURVE SMOOTH",
"298 496 OFFCURVE",
"280 454 OFFCURVE",
"280 431 CURVE SMOOTH",
"280 403 OFFCURVE",
"242 256 OFFCURVE",
"228 214 CURVE",
"197 136 LINE",
"154 54 OFFCURVE",
"82 59 OFFCURVE",
"71 59 CURVE",
"51 0 LINE"
);
}
);
width = 354;
},
{
associatedMasterId = "8163A9A7-FEB5-4584-B00B-7D9977804228";
backgroundImage = {
crop = "{{0, 0}, {493, 698}}";
imagePath = ../Desktop/D.png;
locked = "1";
transform = "{1.2, 0, 0, 1.2, -273, -5}";
};
layerId = "6D5624C4-3CD3-462B-9201-5EA32E79EE13";
name = "Nov 25 17, 10:43";
paths = (
{
closed = 1;
nodes = (
"150 0 LINE",
"150 102 OFFCURVE",
"175 148 OFFCURVE",
"142 205 CURVE SMOOTH",
"109 262 OFFCURVE",
"115 304 OFFCURVE",
"139 402 CURVE SMOOTH",
"163 500 OFFCURVE",
"203 614 OFFCURVE",
"203 700 CURVE",
"124 700 LINE",
"124 614 OFFCURVE",
"84 500 OFFCURVE",
"60 402 CURVE SMOOTH",
"36 304 OFFCURVE",
"30 262 OFFCURVE",
"63 205 CURVE SMOOTH",
"96 148 OFFCURVE",
"76 136 OFFCURVE",
"60 0 CURVE"
);
},
{
closed = 1;
nodes = (
"163 1 OFFCURVE",
"271 -13 OFFCURVE",
"318 89 CURVE",
"330 113 OFFCURVE",
"372 223 OFFCURVE",
"386 273 CURVE",
"400 315 OFFCURVE",
"425 441 OFFCURVE",
"425 469 CURVE SMOOTH",
"425 492 OFFCURVE",
"425 517 OFFCURVE",
"376 562 CURVE SMOOTH",
"348 588 OFFCURVE",
"286 665 OFFCURVE",
"250 700 CURVE",
"124 700 LINE",
"160 665 OFFCURVE",
"267 550 OFFCURVE",
"295 524 CURVE SMOOTH",
"344 479 OFFCURVE",
"344 454 OFFCURVE",
"344 431 CURVE SMOOTH",
"344 403 OFFCURVE",
"306 256 OFFCURVE",
"292 214 CURVE",
"261 136 LINE",
"218 54 OFFCURVE",
"135 59 OFFCURVE",
"124 59 CURVE",
"124 0 LINE"
);
}
);
width = 533;
},
{
associatedMasterId = "8163A9A7-FEB5-4584-B00B-7D9977804228";
layerId = "186E473F-8CF7-435F-8292-903130C5310A";
name = "Dec 2 17, 17:23";
paths = (
{
closed = 1;
nodes = (
"208 660 OFFCURVE",
"218 511 OFFCURVE",
"191 461 CURVE SMOOTH",
"174 430 OFFCURVE",
"137 402 OFFCURVE",
"120 380 CURVE SMOOTH",
"84 334 OFFCURVE",
"126 304 OFFCURVE",
"164 261 CURVE SMOOTH",
"202 218 OFFCURVE",
"204 180 OFFCURVE",
"206 104 CURVE",
"206 0 LINE",
"182 0 LINE",
"182 104 LINE",
"180 180 OFFCURVE",
"178 218 OFFCURVE",
"140 261 CURVE SMOOTH",
"102 304 OFFCURVE",
"60 334 OFFCURVE",
"96 380 CURVE SMOOTH",
"113 402 OFFCURVE",
"150 430 OFFCURVE",
"167 461 CURVE SMOOTH",
"194 511 OFFCURVE",
"184 660 OFFCURVE",
"185 700 CURVE",
"209 700 LINE"
);
}
);
visible = 1;
width = 460;
}
);
unicode = 0044;
},
{
glyphname = E;
lastChange = "2017-12-02 19:36:47 +0000";
layers = (
{
layerId = "8163A9A7-FEB5-4584-B00B-7D9977804228";
paths = (
{
closed = 1;
nodes = (
"394 662 OFFCURVE",
"427 712 OFFCURVE",
"280 712 CURVE SMOOTH",
"171 712 OFFCURVE",
"66 607 OFFCURVE",
"59 487 CURVE",
"59 476 OFFCURVE",
"59 465 OFFCURVE",
"58 455 CURVE SMOOTH",
"47 336 OFFCURVE",
"22 164 OFFCURVE",
"96 49 CURVE",
"165 -53 OFFCURVE",
"432 0 OFFCURVE",
"507 139 CURVE",
"507 139 OFFCURVE",
"454 134 OFFCURVE",
"454 134 CURVE",
"405 16 OFFCURVE",
"157 -6 OFFCURVE",
"109 59 CURVE",
"34 175 OFFCURVE",
"59 341 OFFCURVE",
"71 425 CURVE SMOOTH",
"72 432 OFFCURVE",
"72 440 OFFCURVE",
"72 448 CURVE",
"77 533 OFFCURVE",
"164 687 OFFCURVE",
"242 687 CURVE SMOOTH",
"346 687 OFFCURVE",
"368 663 OFFCURVE",
"457 604 CURVE",
"488 624 LINE"
);
},
{
closed = 1;
nodes = (
"395 514 LINE",
"307 496 LINE",
"294 494 OFFCURVE",
"282 503 OFFCURVE",
"268 513 CURVE SMOOTH",
"254 523 OFFCURVE",
"160 595 OFFCURVE",
"142 618 CURVE",
"130 612 LINE",
"266 502 LINE",
"283 489 OFFCURVE",
"294 478 OFFCURVE",
"318 482 CURVE",
"398 499 LINE"
);
}
);
width = 539;
},
{
associatedMasterId = "8163A9A7-FEB5-4584-B00B-7D9977804228";
layerId = "93AA5363-256C-4100-BF84-22646C38F1D3";
name = "Dec 2 17, 17:26";
paths = (
{
closed = 1;
nodes = (
"449 215 LINE",
"417 191 OFFCURVE",
"393 157 OFFCURVE",
"318 83 CURVE",
"260 34 OFFCURVE",
"196 83 OFFCURVE",
"167 122 CURVE",
"92 238 OFFCURVE",
"122 342 OFFCURVE",
"134 426 CURVE SMOOTH",
"135 433 OFFCURVE",
"135 441 OFFCURVE",
"135 449 CURVE",
"140 534 OFFCURVE",
"214 621 OFFCURVE",
"292 621 CURVE",
"396 621 OFFCURVE",
"395 572 OFFCURVE",
"472 548 CURVE",
"524 608 LINE",
"415 641 OFFCURVE",
"434 713 OFFCURVE",
"287 713 CURVE SMOOTH",
"178 713 OFFCURVE",
"73 608 OFFCURVE",
"66 488 CURVE",
"66 477 OFFCURVE",
"66 466 OFFCURVE",
"65 456 CURVE SMOOTH",
"53 337 OFFCURVE",
"-2 213 OFFCURVE",
"103 50 CURVE",
"153 -18 OFFCURVE",
"292 -38 OFFCURVE",
"356 5 CURVE",
"415 42 OFFCURVE",
"496 144 OFFCURVE",
"517 167 CURVE"
);
},
{
closed = 1;
nodes = (
"441 480 LINE",
"353 462 LINE",
"340 460 OFFCURVE",
"328 469 OFFCURVE",
"314 479 CURVE SMOOTH",
"300 489 OFFCURVE",
"206 561 OFFCURVE",
"188 584 CURVE",
"140 534 LINE",
"292 420 LINE",
"309 407 OFFCURVE",
"320 396 OFFCURVE",
"344 400 CURVE",
"449 426 LINE"
);
}
);
width = 564;
},
{
associatedMasterId = "8163A9A7-FEB5-4584-B00B-7D9977804228";
layerId = "18498EA9-CFC3-40E0-9DFE-457CDA5E30EC";
name = "Dec 2 17, 20:36";
paths = (
{
closed = 1;
nodes = (
"380 663 OFFCURVE",
"434 712 OFFCURVE",
"287 712 CURVE SMOOTH",
"178 712 OFFCURVE",
"73 607 OFFCURVE",
"66 487 CURVE",
"66 476 OFFCURVE",
"66 465 OFFCURVE",
"65 455 CURVE SMOOTH",
"54 336 OFFCURVE",
"29 164 OFFCURVE",
"103 49 CURVE",
"172 -53 OFFCURVE",
"431 0 OFFCURVE",
"506 139 CURVE",
"506 139 OFFCURVE",
"466 134 OFFCURVE",
"454 134 CURVE",
"405 16 OFFCURVE",
"164 -6 OFFCURVE",
"116 59 CURVE",
"41 175 OFFCURVE",
"66 341 OFFCURVE",
"78 425 CURVE SMOOTH",
"79 432 OFFCURVE",
"79 440 OFFCURVE",
"79 448 CURVE",
"84 533 OFFCURVE",
"171 687 OFFCURVE",
"249 687 CURVE SMOOTH",
"353 687 OFFCURVE",
"380 655 OFFCURVE",
"457 603 CURVE",
"488 624 LINE"
);
}
);
width = 539;
}
);
unicode = 0045;
},
{
glyphname = F;
lastChange = "2017-12-02 19:34:41 +0000";
layers = (
{
layerId = "8163A9A7-FEB5-4584-B00B-7D9977804228";
paths = (
{
closed = 1;
nodes = (
"180 319 OFFCURVE",
"126 218 OFFCURVE",
"118 204 CURVE",
"133 166 OFFCURVE",
"158 48 OFFCURVE",
"157 0 CURVE",
"133 0 LINE",
"135 95 OFFCURVE",
"101 189 OFFCURVE",
"81 227 CURVE SMOOTH",
"60 267 OFFCURVE",
"15 314 OFFCURVE",
"57 378 CURVE SMOOTH",
"119 473 OFFCURVE",
"199 643 OFFCURVE",
"196 700 CURVE",
"220 700 LINE",
"223 647 OFFCURVE",
"139 469 OFFCURVE",
"79 378 CURVE SMOOTH",
"37 314 OFFCURVE",
"82 267 OFFCURVE",
"103 227 CURVE",
"106 222 LINE",
"116 239 OFFCURVE",
"190 353 OFFCURVE",
"235 371 CURVE",
"237 355 LINE"
);
}
);
width = 282;
},
{
associatedMasterId = "8163A9A7-FEB5-4584-B00B-7D9977804228";
layerId = "4F10EFC7-285B-41F1-94EB-E6DCF3D6A1D7";
name = "Dec 2 17, 17:28";
paths = (
{
closed = 1;
nodes = (
"209 660 OFFCURVE",
"219 511 OFFCURVE",
"192 461 CURVE SMOOTH",
"175 430 OFFCURVE",
"138 402 OFFCURVE",
"121 380 CURVE SMOOTH",
"85 334 OFFCURVE",
"127 304 OFFCURVE",
"165 261 CURVE SMOOTH",
"203 218 OFFCURVE",
"205 180 OFFCURVE",
"207 104 CURVE",
"207 0 LINE",
"183 0 LINE",
"183 104 LINE",
"181 180 OFFCURVE",
"179 218 OFFCURVE",
"141 261 CURVE SMOOTH",
"103 304 OFFCURVE",
"61 334 OFFCURVE",
"97 380 CURVE SMOOTH",
"114 402 OFFCURVE",
"151 430 OFFCURVE",
"168 461 CURVE SMOOTH",
"195 511 OFFCURVE",
"185 660 OFFCURVE",
"186 700 CURVE",
"210 700 LINE"
);
},
{
closed = 0;
nodes = (
"179 200 LINE SMOOTH",
"179 217 OFFCURVE",
"179 232 OFFCURVE",
"188 242 CURVE",
"253 304 LINE",
"242 315 LINE",
"183 259 LINE",
"165 242 OFFCURVE",
"168 226 OFFCURVE",
"169 205 CURVE"
);
}
);
visible = 1;
width = 341;
}
);
unicode = 0046;
},
{
glyphname = G;
lastChange = "2017-11-17 17:02:41 +0000";
layers = (
{
layerId = "8163A9A7-FEB5-4584-B00B-7D9977804228";
paths = (
{
closed = 1;
nodes = (
"199 160 OFFCURVE",
"188 255 OFFCURVE",
"155 333 CURVE SMOOTH",
"152 340 OFFCURVE",
"148 347 OFFCURVE",
"144 354 CURVE",
"106 430 OFFCURVE",
"132 532 OFFCURVE",
"200 571 CURVE",
"283 624 OFFCURVE",
"335 601 OFFCURVE",
"367 570 CURVE",
"415 637 LINE",
"415 637 OFFCURVE",
"409 709 OFFCURVE",
"262 709 CURVE SMOOTH",
"153 709 OFFCURVE",
"48 604 OFFCURVE",
"41 484 CURVE SMOOTH",
"38 441 OFFCURVE",
"45 392 OFFCURVE",
"65 353 CURVE",
"70 343 OFFCURVE",
"76 334 OFFCURVE",
"80 325 CURVE SMOOTH",
"129 216 OFFCURVE",
"96 89 OFFCURVE",
"269 0 CURVE",
"342 -30 OFFCURVE",
"401 36 OFFCURVE",
"440 79 CURVE",
"456 98 OFFCURVE",
"448 118 OFFCURVE",
"446 126 CURVE",
"440 145 OFFCURVE",
"442 160 OFFCURVE",
"456 174 CURVE SMOOTH",
"470 188 OFFCURVE",
"535 194 OFFCURVE",
"562 196 CURVE",
"555 276 LINE",
"458 258 LINE",
"434 252 OFFCURVE",
"420 242 OFFCURVE",
"412 223 CURVE SMOOTH",
"403 203 OFFCURVE",
"410 185 OFFCURVE",
"402 157 CURVE",
"389 113 OFFCURVE",
"362 79 OFFCURVE",
"322 97 CURVE"
);
}
);
width = 597;
}
);
unicode = 0047;
},
{
glyphname = H;
lastChange = "2017-12-03 13:16:19 +0000";
layers = (
{
guideLines = (
{
angle = 270;
position = "{196, 360}";
},
{
angle = 236.5135;
position = "{-877, 611}";
}
);
layerId = "8163A9A7-FEB5-4584-B00B-7D9977804228";
paths = (
{
closed = 1;
nodes = (
"275 174 OFFCURVE",
"401 280 OFFCURVE",
"439 286 CURVE",
"442 307 LINE",
"404 301 OFFCURVE",
"267 186 OFFCURVE",
"255 177 CURVE SMOOTH",
"243 168 OFFCURVE",
"243 168 OFFCURVE",
"229 177 CURVE SMOOTH",
"218 184 OFFCURVE",
"88 301 OFFCURVE",
"50 307 CURVE",
"47 286 LINE",
"85 280 OFFCURVE",
"216 171 OFFCURVE",
"224 127 CURVE SMOOTH",
"227 110 OFFCURVE",
"257 109 OFFCURVE",
"262 127 CURVE SMOOTH"
);
},
{
closed = 1;
nodes = (
"64 0 LINE",
"64 104 LINE SMOOTH",
"64 359 OFFCURVE",
"106 500 OFFCURVE",
"106 643 CURVE SMOOTH",
"106 700 LINE",
"82 700 LINE",
"82 643 LINE SMOOTH",
"82 500 OFFCURVE",
"40 359 OFFCURVE",
"40 104 CURVE SMOOTH",
"40 0 LINE"
);
},
{
closed = 1;
nodes = (
"437 0 LINE",
"437 58 LINE SMOOTH",
"437 146 OFFCURVE",
"466 178 OFFCURVE",
"456 258 CURVE SMOOTH",
"436 416 OFFCURVE",
"437 672 OFFCURVE",
"437 700 CURVE",
"412 700 LINE",
"412 672 OFFCURVE",
"411 416 OFFCURVE",
"431 258 CURVE SMOOTH",
"441 178 OFFCURVE",
"412 146 OFFCURVE",
"412 58 CURVE SMOOTH",
"412 0 LINE"
);
}
);
width = 498;
},
{
associatedMasterId = "8163A9A7-FEB5-4584-B00B-7D9977804228";
guideLines = (
{
angle = 270;
position = "{246, 360}";
},
{
angle = 236.5135;
position = "{-4, 223}";
}
);
layerId = "4DA8C818-AE0E-4801-A298-74D53BB1A0B5";
name = "Nov 25 17, 11:00";
paths = (
{
closed = 1;
nodes = (
"503 336 OFFCURVE",
"547 306 OFFCURVE",
"525 264 CURVE",
"403 0 LINE",
"323 0 LINE",
"408 177 LINE",
"428 215 OFFCURVE",
"393 200 OFFCURVE",
"283 200 CURVE",
"220 200 OFFCURVE",
"141 215 OFFCURVE",
"161 177 CURVE",
"246 0 LINE",
"167 0 LINE",
"46 268 LINE",
"24 310 OFFCURVE",
"68 340 OFFCURVE",
"122 304 CURVE",
"215 242 OFFCURVE",
"243 268 OFFCURVE",
"243 461 CURVE SMOOTH",
"243 511 OFFCURVE",
"243 700 OFFCURVE",
"243 700 CURVE",
"322 700 LINE",
"322 700 OFFCURVE",
"322 663 OFFCURVE",
"322 461 CURVE SMOOTH",
"322 268 OFFCURVE",
"359 242 OFFCURVE",
"449 300 CURVE"
);
}
);
width = 571;
},
{
associatedMasterId = "8163A9A7-FEB5-4584-B00B-7D9977804228";
guideLines = (
{
angle = 270;
position = "{269, 360}";
},
{
angle = 236.5135;
position = "{-804, 611}";
}
);
layerId = "27DCBC4B-CDD7-4F46-B955-2904CC8BF57C";
name = "Nov 25 17, 12:28";
paths = (
{
closed = 1;
nodes = (
"296 63 LINE",
"315 67 LINE",
"315 110 OFFCURVE",
"454 222 OFFCURVE",
"492 228 CURVE",
"492 307 LINE",
"454 301 OFFCURVE",
"314 188 OFFCURVE",
"305 177 CURVE SMOOTH",
"296 166 OFFCURVE",
"290 166 OFFCURVE",
"279 177 CURVE SMOOTH",
"270 186 OFFCURVE",
"138 301 OFFCURVE",
"100 307 CURVE",
"100 228 LINE",
"138 222 OFFCURVE",
"277 110 OFFCURVE",
"277 67 CURVE"
);
},
{
closed = 1;
nodes = (
"114 0 LINE",
"114 104 LINE SMOOTH",
"114 359 OFFCURVE",
"156 500 OFFCURVE",
"156 643 CURVE SMOOTH",
"156 700 LINE",
"77 700 LINE",
"77 643 LINE SMOOTH",
"77 500 OFFCURVE",
"35 359 OFFCURVE",
"35 104 CURVE SMOOTH",
"35 0 LINE"
);
},
{
closed = 1;
nodes = (
"541 0 LINE",
"541 58 LINE SMOOTH",
"541 146 OFFCURVE",
"570 178 OFFCURVE",
"560 258 CURVE SMOOTH",
"540 416 OFFCURVE",
"541 672 OFFCURVE",
"541 700 CURVE",
"462 700 LINE",
"462 672 OFFCURVE",
"461 416 OFFCURVE",
"481 258 CURVE SMOOTH",
"491 178 OFFCURVE",
"462 146 OFFCURVE",
"462 58 CURVE SMOOTH",
"462 0 LINE"
);
}
);
width = 597;
},
{
associatedMasterId = "8163A9A7-FEB5-4584-B00B-7D9977804228";
guideLines = (
{
angle = 270;
position = "{246, 360}";
},
{
angle = 236.5135;
position = "{-827, 611}";
}
);
layerId = "F8C44169-EF33-4223-86C4-C5B8D2FB64B0";
name = "Dec 3 17, 13:43";
paths = (
{
closed = 1;
nodes = (
"296 63 LINE",
"315 67 LINE",
"315 110 OFFCURVE",
"454 222 OFFCURVE",
"492 228 CURVE",
"492 307 LINE",
"454 301 OFFCURVE",
"314 188 OFFCURVE",
"305 177 CURVE SMOOTH",
"296 166 OFFCURVE",
"290 166 OFFCURVE",
"279 177 CURVE SMOOTH",
"270 186 OFFCURVE",
"138 301 OFFCURVE",
"100 307 CURVE",
"100 228 LINE",
"138 222 OFFCURVE",
"277 110 OFFCURVE",
"277 67 CURVE"
);
},
{
closed = 1;
nodes = (
"114 0 LINE",
"114 104 LINE SMOOTH",
"114 359 OFFCURVE",
"156 500 OFFCURVE",
"156 643 CURVE SMOOTH",
"156 700 LINE",
"77 700 LINE",
"77 643 LINE SMOOTH",
"77 500 OFFCURVE",
"35 359 OFFCURVE",
"35 104 CURVE SMOOTH",
"35 0 LINE"
);
},
{
closed = 1;
nodes = (
"541 0 LINE",
"541 58 LINE SMOOTH",
"541 146 OFFCURVE",
"570 178 OFFCURVE",
"560 258 CURVE SMOOTH",
"540 416 OFFCURVE",
"541 672 OFFCURVE",
"541 700 CURVE",
"462 700 LINE",
"462 672 OFFCURVE",
"461 416 OFFCURVE",
"481 258 CURVE SMOOTH",
"491 178 OFFCURVE",
"462 146 OFFCURVE",
"462 58 CURVE SMOOTH",
"462 0 LINE"
);
}
);
width = 597;
},
{
associatedMasterId = "8163A9A7-FEB5-4584-B00B-7D9977804228";
guideLines = (
{
angle = 270;
position = "{246, 360}";
},
{
angle = 236.5135;
position = "{-827, 611}";
}
);
layerId = "AB3720A6-6189-41AA-9097-D3DAF36A638C";
name = "Dec 3 17, 13:43";
paths = (
{
closed = 1;
nodes = (
"485 660 OFFCURVE",
"495 511 OFFCURVE",
"468 461 CURVE SMOOTH",
"451 430 OFFCURVE",
"414 402 OFFCURVE",
"397 380 CURVE SMOOTH",
"361 334 OFFCURVE",
"403 304 OFFCURVE",
"441 261 CURVE SMOOTH",
"479 218 OFFCURVE",
"481 180 OFFCURVE",
"483 104 CURVE",
"483 0 LINE",
"459 0 LINE",
"459 104 LINE",
"457 180 OFFCURVE",
"455 218 OFFCURVE",
"417 261 CURVE SMOOTH",
"379 304 OFFCURVE",
"337 334 OFFCURVE",
"373 380 CURVE SMOOTH",
"390 402 OFFCURVE",
"427 430 OFFCURVE",
"444 461 CURVE SMOOTH",
"471 511 OFFCURVE",
"461 660 OFFCURVE",
"462 700 CURVE",
"486 700 LINE"
);
}
);
width = 597;
},
{
associatedMasterId = "8163A9A7-FEB5-4584-B00B-7D9977804228";
guideLines = (
{
angle = 270;
position = "{246, 360}";
},
{
angle = 236.5135;
position = "{-827, 611}";
}
);
layerId = "E3E4BD74-4F54-41EF-BC4D-7D0CD4B314C9";
name = "Dec 3 17, 14:14";
paths = (
{
closed = 1;
nodes = (
"293 121 LINE",
"312 125 LINE",
"312 168 OFFCURVE",
"451 280 OFFCURVE",
"489 286 CURVE",
"492 307 LINE",
"454 301 OFFCURVE",
"317 186 OFFCURVE",
"305 177 CURVE SMOOTH",
"293 168 OFFCURVE",
"293 168 OFFCURVE",
"279 177 CURVE SMOOTH",
"268 184 OFFCURVE",
"138 301 OFFCURVE",
"100 307 CURVE",
"97 286 LINE",
"135 280 OFFCURVE",
"274 168 OFFCURVE",
"274 125 CURVE"
);
},
{
closed = 1;
nodes = (
"114 0 LINE",
"114 104 LINE SMOOTH",
"114 359 OFFCURVE",
"156 500 OFFCURVE",
"156 643 CURVE SMOOTH",
"156 700 LINE",
"132 700 LINE",
"132 643 LINE SMOOTH",
"132 500 OFFCURVE",
"90 359 OFFCURVE",
"90 104 CURVE SMOOTH",
"90 0 LINE"
);
},
{
closed = 1;
nodes = (
"487 0 LINE",
"487 58 LINE SMOOTH",
"487 146 OFFCURVE",
"516 178 OFFCURVE",
"506 258 CURVE SMOOTH",
"486 416 OFFCURVE",
"487 672 OFFCURVE",
"487 700 CURVE",
"462 700 LINE",
"462 672 OFFCURVE",
"461 416 OFFCURVE",
"481 258 CURVE SMOOTH",
"491 178 OFFCURVE",
"462 146 OFFCURVE",
"462 58 CURVE SMOOTH",
"462 0 LINE"
);
}
);
visible = 1;
width = 597;
}
);
unicode = 0048;
},
{
glyphname = I;
lastChange = "2017-12-02 15:14:47 +0000";
layers = (
{
layerId = "8163A9A7-FEB5-4584-B00B-7D9977804228";
paths = (
{
closed = 1;
nodes = (
"166 660 OFFCURVE",
"176 511 OFFCURVE",
"149 461 CURVE SMOOTH",
"132 430 OFFCURVE",
"95 402 OFFCURVE",
"78 380 CURVE SMOOTH",
"42 334 OFFCURVE",
"84 304 OFFCURVE",
"122 261 CURVE SMOOTH",
"160 218 OFFCURVE",
"162 180 OFFCURVE",
"164 104 CURVE",
"164 0 LINE",
"140 0 LINE",
"140 104 LINE",
"138 180 OFFCURVE",
"136 218 OFFCURVE",
"98 261 CURVE SMOOTH",
"60 304 OFFCURVE",
"18 334 OFFCURVE",
"54 380 CURVE SMOOTH",
"71 402 OFFCURVE",
"108 430 OFFCURVE",
"125 461 CURVE SMOOTH",
"152 511 OFFCURVE",
"142 660 OFFCURVE",
"143 700 CURVE",
"167 700 LINE"
);
}
);
width = 208;
}
);
unicode = 0049;
},
{
glyphname = J;
lastChange = "2017-12-02 19:40:34 +0000";
layers = (
{
layerId = "8163A9A7-FEB5-4584-B00B-7D9977804228";
paths = (
{
closed = 1;
nodes = (
"40 41 LINE",
"110 0 OFFCURVE",
"259 -71 OFFCURVE",
"349 5 CURVE SMOOTH",
"372 24 OFFCURVE",
"424 79 OFFCURVE",
"473 171 CURVE SMOOTH",
"502 226 OFFCURVE",
"541 226 OFFCURVE",
"582 285 CURVE SMOOTH",
"621 341 OFFCURVE",
"634 502 OFFCURVE",
"644 530 CURVE SMOOTH",
"654 558 OFFCURVE",
"687 671 OFFCURVE",
"699 700 CURVE",
"676 700 LINE",
"665 672 OFFCURVE",
"633 564 OFFCURVE",
"624 538 CURVE SMOOTH",
"615 511 OFFCURVE",
"602 358 OFFCURVE",
"565 304 CURVE SMOOTH",
"526 247 OFFCURVE",
"485 241 OFFCURVE",
"461 196 CURVE SMOOTH",
"348 -13 OFFCURVE",
"270 -65 OFFCURVE",
"64 53 CURVE"
);
}
);
width = 739;
},
{
associatedMasterId = "8163A9A7-FEB5-4584-B00B-7D9977804228";
layerId = "7A27A3DD-CC26-4369-BFC5-F1436134130D";
name = "Dec 2 17, 20:39";
paths = (
{
closed = 1;
nodes = (
"699 660 OFFCURVE",
"709 511 OFFCURVE",
"682 461 CURVE SMOOTH",
"665 430 OFFCURVE",
"628 402 OFFCURVE",
"611 380 CURVE SMOOTH",
"575 334 OFFCURVE",
"617 304 OFFCURVE",
"655 261 CURVE SMOOTH",
"693 218 OFFCURVE",
"695 180 OFFCURVE",
"697 104 CURVE",
"697 0 LINE",
"673 0 LINE",
"673 104 LINE",
"671 180 OFFCURVE",
"669 218 OFFCURVE",
"631 261 CURVE SMOOTH",
"593 304 OFFCURVE",
"551 334 OFFCURVE",
"587 380 CURVE SMOOTH",
"604 402 OFFCURVE",
"641 430 OFFCURVE",
"658 461 CURVE SMOOTH",
"685 511 OFFCURVE",
"675 660 OFFCURVE",
"676 700 CURVE",
"700 700 LINE"
);
}
);
width = 739;
}
);
unicode = 004A;
},
{
glyphname = K;
lastChange = "2017-12-03 10:46:37 +0000";
layers = (
{
layerId = "8163A9A7-FEB5-4584-B00B-7D9977804228";
paths = (
{
closed = 1;
nodes = (
"74 336 LINE",
"91 336 OFFCURVE",
"134 301 OFFCURVE",
"134 169 CURVE",
"133 57 LINE",
"133 0 LINE",
"156 -1 LINE",
"156 56 LINE",
"157 168 LINE",
"157 278 OFFCURVE",
"126 359 OFFCURVE",
"82 359 CURVE"
);
},
{
closed = 1;
nodes = (
"64 0 LINE",
"64 104 LINE",
"63 271 OFFCURVE",
"93 321 OFFCURVE",
"115 425 CURVE SMOOTH",
"137 529 OFFCURVE",
"133 549 OFFCURVE",
"133 596 CURVE SMOOTH",
"133 700 LINE",
"109 700 LINE",
"109 596 LINE SMOOTH",
"109 549 OFFCURVE",
"113 529 OFFCURVE",
"91 425 CURVE SMOOTH",
"69 321 OFFCURVE",
"39 271 OFFCURVE",
"40 104 CURVE",
"40 0 LINE"
);
},
{
closed = 1;
nodes = (
"174 454 OFFCURVE",
"222 500 OFFCURVE",
"246 529 CURVE",
"220 536 LINE",
"210 523 OFFCURVE",
"174 477 OFFCURVE",
"115 462 CURVE",
"114 438 LINE"
);
}
);
width = 286;
},
{
associatedMasterId = "8163A9A7-FEB5-4584-B00B-7D9977804228";
backgroundImage = {
crop = "{{0, 0}, {153, 376}}";
imagePath = ../Desktop/K.png;
locked = "1";
transform = "{2.2, 0, 0, 2.2, 143, 0}";
};
layerId = "CFAF61F0-9872-4C4A-B878-0308FF778CEA";
name = "Nov 25 17, 11:43";
paths = (
{
closed = 1;
nodes = (
"258 351 LINE",
"275 351 OFFCURVE",
"337 301 OFFCURVE",
"337 169 CURVE",
"336 57 LINE",
"336 0 LINE",
"400 0 LINE",
"400 57 LINE",
"401 169 LINE",
"401 279 OFFCURVE",
"364 372 OFFCURVE",
"289 407 CURVE"
);
},
{
closed = 1;
nodes = (
"267 0 LINE",
"267 104 LINE",
"266 271 OFFCURVE",
"296 321 OFFCURVE",
"318 425 CURVE SMOOTH",
"340 529 OFFCURVE",
"336 549 OFFCURVE",
"336 596 CURVE SMOOTH",
"336 700 LINE",
"257 700 LINE",
"257 596 LINE SMOOTH",
"257 549 OFFCURVE",
"261 529 OFFCURVE",
"239 425 CURVE SMOOTH",
"217 321 OFFCURVE",
"187 271 OFFCURVE",
"188 104 CURVE",
"188 0 LINE"
);
},
{
closed = 1;
nodes = (
"377 454 OFFCURVE",
"457 514 OFFCURVE",
"449 529 CURVE SMOOTH",
"423 577 LINE",
"413 564 OFFCURVE",
"348 501 OFFCURVE",
"289 486 CURVE",
"317 438 LINE"
);
}
);
width = 600;
},
{
associatedMasterId = "8163A9A7-FEB5-4584-B00B-7D9977804228";
layerId = "48C8BC5D-86FC-4089-8074-D00D816A7E88";
name = "Dec 3 17, 11:44";
paths = (
{
closed = 1;
nodes = (
"-497 464 OFFCURVE",
"-347 473 OFFCURVE",
"-298 447 CURVE SMOOTH",
"-266 430 OFFCURVE",
"-239 392 OFFCURVE",
"-217 376 CURVE SMOOTH",
"-169 341 OFFCURVE",
"-141 382 OFFCURVE",
"-98 420 CURVE SMOOTH",
"-55 458 OFFCURVE",
"-17 460 OFFCURVE",
"60 462 CURVE",
"164 462 LINE",
"164 438 LINE",
"60 438 LINE",
"-17 436 OFFCURVE",
"-55 434 OFFCURVE",
"-98 396 CURVE SMOOTH",
"-141 358 OFFCURVE",
"-171 314 OFFCURVE",
"-217 352 CURVE SMOOTH",
"-238 369 OFFCURVE",
"-266 406 OFFCURVE",
"-298 423 CURVE SMOOTH",
"-347 449 OFFCURVE",
"-497 440 OFFCURVE",
"-537 441 CURVE",
"-537 465 LINE"
);
}
);
width = 337;
}
);
unicode = 004B;
},
{
glyphname = L;
lastChange = "2017-12-02 19:43:38 +0000";
layers = (
{
layerId = "8163A9A7-FEB5-4584-B00B-7D9977804228";
paths = (
{
closed = 1;
nodes = (
"136 0 LINE",
"135 86 LINE",
"135 155 OFFCURVE",
"151 193 OFFCURVE",
"151 235 CURVE SMOOTH",
"151 261 OFFCURVE",
"106 311 OFFCURVE",
"87 340 CURVE SMOOTH",
"-8 486 OFFCURVE",
"56 595 OFFCURVE",
"56 700 CURVE",
"80 700 LINE",
"80 595 OFFCURVE",
"16 486 OFFCURVE",
"111 340 CURVE SMOOTH",
"130 311 OFFCURVE",
"175 261 OFFCURVE",
"175 235 CURVE SMOOTH",
"175 193 OFFCURVE",
"159 155 OFFCURVE",
"159 86 CURVE",
"159 79 OFFCURVE",
"159 18 OFFCURVE",
"165 18 CURVE SMOOTH",
"181 18 OFFCURVE",
"326 50 OFFCURVE",
"359 48 CURVE",
"359 28 LINE",
"321 28 OFFCURVE",
"209 0 OFFCURVE",
"159 0 CURVE"
);
}
);
width = 394;
},
{
associatedMasterId = "8163A9A7-FEB5-4584-B00B-7D9977804228";
layerId = "4F5F575C-6CFC-4C1D-B785-0637ABEC0BF1";
name = "Dec 2 17, 20:41";
paths = (
{
closed = 1;
nodes = (
"139 660 OFFCURVE",
"149 511 OFFCURVE",
"122 461 CURVE SMOOTH",
"105 430 OFFCURVE",
"68 402 OFFCURVE",
"51 380 CURVE SMOOTH",
"15 334 OFFCURVE",
"57 304 OFFCURVE",
"95 261 CURVE SMOOTH",
"133 218 OFFCURVE",
"135 180 OFFCURVE",
"137 104 CURVE",
"137 0 LINE",
"113 0 LINE",
"113 104 LINE",
"111 180 OFFCURVE",
"109 218 OFFCURVE",
"71 261 CURVE SMOOTH",
"33 304 OFFCURVE",
"-9 334 OFFCURVE",
"27 380 CURVE SMOOTH",
"44 402 OFFCURVE",
"81 430 OFFCURVE",
"98 461 CURVE SMOOTH",
"125 511 OFFCURVE",
"115 660 OFFCURVE",
"116 700 CURVE",
"140 700 LINE"
);
}
);
visible = 1;
width = 454;
}
);
unicode = 004C;
},
{
glyphname = M;
lastChange = "2017-12-03 14:01:18 +0000";
layers = (
{
layerId = "8163A9A7-FEB5-4584-B00B-7D9977804228";
paths = (
{
closed = 1;
nodes = (
"85 700 LINE",
"56 618 OFFCURVE",
"44 604 OFFCURVE",
"40 485 CURVE SMOOTH",
"38 420 OFFCURVE",
"46 384 OFFCURVE",
"56 355 CURVE SMOOTH",
"66 326 OFFCURVE",
"52 261 OFFCURVE",
"49 232 CURVE SMOOTH",
"46 203 OFFCURVE",
"55 160 OFFCURVE",
"64 121 CURVE SMOOTH",
"93 0 LINE",
"113 0 LINE",
"85 121 LINE SMOOTH",
"76 160 OFFCURVE",
"67 203 OFFCURVE",
"70 232 CURVE SMOOTH",
"73 261 OFFCURVE",
"87 326 OFFCURVE",
"77 355 CURVE SMOOTH",
"67 384 OFFCURVE",
"59 420 OFFCURVE",
"61 485 CURVE SMOOTH",
"65 604 OFFCURVE",
"76 618 OFFCURVE",
"105 700 CURVE"
);
},
{
closed = 1;
nodes = (
"153 635 LINE SMOOTH",
"129 667 OFFCURVE",
"119 682 OFFCURVE",
"105 700 CURVE",
"89 680 LINE",
"89 680 OFFCURVE",
"115 646 OFFCURVE",
"139 614 CURVE SMOOTH",
"181 558 LINE",
"181 558 OFFCURVE",
"195 579 OFFCURVE",
"195 579 CURVE"
);
},
{
closed = 1;
nodes = (
"207 606 OFFCURVE",
"195 545 OFFCURVE",
"128 372 CURVE",
"143 362 LINE",
"220 562 OFFCURVE",
"219 586 OFFCURVE",
"260 579 CURVE",
"223 399 LINE SMOOTH",
"214 356 OFFCURVE",
"229 254 OFFCURVE",
"247 194 CURVE SMOOTH",
"265 134 OFFCURVE",
"287 52 OFFCURVE",
"300 0 CURVE",
"321 0 LINE",
"308 52 OFFCURVE",
"286 134 OFFCURVE",
"268 194 CURVE SMOOTH",
"250 254 OFFCURVE",
"235 355 OFFCURVE",
"244 399 CURVE SMOOTH",
"281 582 OFFCURVE",
"278 580 OFFCURVE",
"296 610 CURVE",
"271 610 LINE"
);
}
);
width = 361;
},
{
associatedMasterId = "8163A9A7-FEB5-4584-B00B-7D9977804228";
layerId = "FCA9550B-F68D-4677-9A53-82C680E5C896";
name = "Dec 3 17, 14:56";
paths = (
{
closed = 1;
nodes = (
"80 700 LINE",
"51 618 OFFCURVE",
"39 604 OFFCURVE",
"35 485 CURVE SMOOTH",
"33 420 OFFCURVE",
"41 384 OFFCURVE",
"51 355 CURVE SMOOTH",
"61 326 OFFCURVE",
"47 261 OFFCURVE",
"44 232 CURVE SMOOTH",
"41 203 OFFCURVE",
"50 160 OFFCURVE",
"59 121 CURVE SMOOTH",
"88 0 LINE",
"167 0 LINE",
"139 121 LINE SMOOTH",
"130 160 OFFCURVE",
"121 203 OFFCURVE",
"124 232 CURVE SMOOTH",
"127 261 OFFCURVE",
"141 326 OFFCURVE",
"131 355 CURVE SMOOTH",
"121 384 OFFCURVE",
"113 420 OFFCURVE",
"115 485 CURVE SMOOTH",
"119 604 OFFCURVE",
"130 618 OFFCURVE",
"159 700 CURVE"
);
},
{
closed = 1;
nodes = (
"207 635 LINE SMOOTH",
"183 667 OFFCURVE",
"173 682 OFFCURVE",
"159 700 CURVE",
"134 639 LINE",
"148 621 OFFCURVE",
"151 617 OFFCURVE",
"175 585 CURVE SMOOTH",
"217 529 LINE",
"231 552 OFFCURVE",
"232 549 OFFCURVE",
"249 579 CURVE"
);
},
{
closed = 1;
nodes = (
"303 597 OFFCURVE",
"263 573 OFFCURVE",
"231 505 CURVE",
"182 372 LINE",
"221 343 LINE",
"249 429 LINE",
"260 466 OFFCURVE",
"277 531 OFFCURVE",
"300 514 CURVE",
"277 399 LINE SMOOTH",
"268 355 OFFCURVE",
"283 254 OFFCURVE",
"301 194 CURVE SMOOTH",
"319 134 OFFCURVE",
"341 52 OFFCURVE",
"354 0 CURVE",
"429 0 LINE",
"416 52 OFFCURVE",
"394 134 OFFCURVE",
"376 194 CURVE SMOOTH",
"358 254 OFFCURVE",
"343 355 OFFCURVE",
"352 399 CURVE SMOOTH",
"389 582 OFFCURVE",
"345 489 OFFCURVE",
"404 610 CURVE",
"325 610 LINE",
"325 610 LINE"
);
}
);
width = 464;
},
{
associatedMasterId = "8163A9A7-FEB5-4584-B00B-7D9977804228";
layerId = "ED617747-1127-4CEF-BCA2-A307062DEC32";
name = "Dec 3 17, 14:56";
paths = (
{
closed = 1;
nodes = (
"219 590 OFFCURVE",
"229 441 OFFCURVE",
"202 391 CURVE SMOOTH",
"185 360 OFFCURVE",
"148 332 OFFCURVE",
"131 310 CURVE SMOOTH",
"95 264 OFFCURVE",
"137 234 OFFCURVE",
"175 191 CURVE SMOOTH",
"213 148 OFFCURVE",
"215 110 OFFCURVE",
"217 34 CURVE",
"217 -73 LINE",
"193 -73 LINE",
"193 34 LINE",
"191 110 OFFCURVE",
"189 148 OFFCURVE",
"151 191 CURVE SMOOTH",
"113 234 OFFCURVE",
"71 264 OFFCURVE",
"107 310 CURVE SMOOTH",
"124 332 OFFCURVE",
"161 360 OFFCURVE",
"178 391 CURVE SMOOTH",
"205 441 OFFCURVE",
"195 590 OFFCURVE",
"196 630 CURVE",
"220 630 LINE"
);
}
);
visible = 1;
width = 464;
}
);
unicode = 004D;
},
{
glyphname = N;
lastChange = "2017-12-03 10:51:15 +0000";
layers = (
{
layerId = "8163A9A7-FEB5-4584-B00B-7D9977804228";
paths = (
{
closed = 1;
nodes = (
"303 437 OFFCURVE",
"247 362 OFFCURVE",
"237 314 CURVE SMOOTH",
"227 266 OFFCURVE",
"245 210 OFFCURVE",
"271 160 CURVE SMOOTH",
"289 125 OFFCURVE",
"296 94 OFFCURVE",
"296 0 CURVE",
"269 0 LINE",
"269 94 OFFCURVE",
"262 125 OFFCURVE",
"244 160 CURVE SMOOTH",
"218 210 OFFCURVE",
"200 266 OFFCURVE",
"210 314 CURVE SMOOTH",
"220 362 OFFCURVE",
"264 419 OFFCURVE",
"274 552 CURVE",
"252 590 OFFCURVE",
"106 677 OFFCURVE",
"90 677 CURVE",
"90 532 LINE SMOOTH",
"90 469 OFFCURVE",
"77 418 OFFCURVE",
"65 360 CURVE SMOOTH",
"53 302 OFFCURVE",
"93 258 OFFCURVE",
"93 222 CURVE SMOOTH",
"93 186 OFFCURVE",
"88 58 OFFCURVE",
"88 0 CURVE",
"65 0 LINE",
"65 58 OFFCURVE",
"70 186 OFFCURVE",
"70 222 CURVE SMOOTH",
"70 258 OFFCURVE",
"30 302 OFFCURVE",
"42 360 CURVE SMOOTH",
"54 418 OFFCURVE",
"67 469 OFFCURVE",
"67 532 CURVE SMOOTH",
"67 700 LINE",
"83 700 LINE",
"106 700 OFFCURVE",
"249 628 OFFCURVE",
"279 579 CURVE",
"276 614 OFFCURVE",
"270 641 OFFCURVE",
"269 700 CURVE",
"296 700 LINE",
"297 641 OFFCURVE",
"303 621 OFFCURVE",
"303 579 CURVE"
);
}
);
width = 343;
},
{
associatedMasterId = "8163A9A7-FEB5-4584-B00B-7D9977804228";
layerId = "DC0A7648-D7FE-4ED3-BB80-43B4F10E5117";
name = "Dec 3 17, 11:49";
paths = (
{
closed = 1;
nodes = (
"347 660 OFFCURVE",
"357 511 OFFCURVE",
"330 461 CURVE SMOOTH",
"313 430 OFFCURVE",
"276 402 OFFCURVE",
"259 380 CURVE SMOOTH",
"223 334 OFFCURVE",
"265 304 OFFCURVE",
"303 261 CURVE SMOOTH",
"341 218 OFFCURVE",
"343 180 OFFCURVE",
"345 104 CURVE",
"345 0 LINE",
"321 0 LINE",
"321 104 LINE",
"319 180 OFFCURVE",
"317 218 OFFCURVE",
"279 261 CURVE SMOOTH",
"241 304 OFFCURVE",
"199 334 OFFCURVE",
"235 380 CURVE SMOOTH",
"252 402 OFFCURVE",
"289 430 OFFCURVE",
"306 461 CURVE SMOOTH",
"333 511 OFFCURVE",
"323 660 OFFCURVE",
"324 700 CURVE",
"348 700 LINE"
);
}
);
visible = 1;
width = 444;
}
);
unicode = 004E;
},
{
glyphname = O;
lastChange = "2017-11-15 14:13:55 +0000";
layers = (
{
layerId = "8163A9A7-FEB5-4584-B00B-7D9977804228";
paths = (
{
closed = 1;
nodes = (
"140 533 OFFCURVE",
"214 608 OFFCURVE",
"292 608 CURVE SMOOTH",
"396 608 OFFCURVE",
"383 557 OFFCURVE",
"460 533 CURVE SMOOTH",
"538 510 OFFCURVE",
"446 412 OFFCURVE",
"453 336 CURVE SMOOTH",
"461 259 OFFCURVE",
"432 231 OFFCURVE",
"396 159 CURVE SMOOTH",
"361 88 OFFCURVE",
"209 72 OFFCURVE",
"161 137 CURVE",
"86 253 OFFCURVE",
"126 341 OFFCURVE",
"134 425 CURVE SMOOTH",
"135 432 OFFCURVE",
"135 440 OFFCURVE",
"135 448 CURVE"
);
},
{
closed = 1;
nodes = (
"66 476 OFFCURVE",
"66 465 OFFCURVE",
"65 455 CURVE SMOOTH",
"54 336 OFFCURVE",
"-2 212 OFFCURVE",
"103 49 CURVE",
"170 -42 OFFCURVE",
"384 -20 OFFCURVE",
"434 81 CURVE SMOOTH",
"484 182 OFFCURVE",
"525 221 OFFCURVE",
"514 329 CURVE SMOOTH",
"503 437 OFFCURVE",
"633 574 OFFCURVE",
"524 607 CURVE SMOOTH",
"415 640 OFFCURVE",
"434 712 OFFCURVE",
"287 712 CURVE SMOOTH",
"178 712 OFFCURVE",
"73 607 OFFCURVE",
"66 487 CURVE"
);
}
);
width = 608;
}
);
unicode = 004F;
},
{
glyphname = P;
lastChange = "2017-12-03 10:58:12 +0000";
layers = (
{
layerId = "8163A9A7-FEB5-4584-B00B-7D9977804228";
paths = (
{
closed = 1;
nodes = (
"68 324 OFFCURVE",
"54 359 OFFCURVE",
"96 386 CURVE SMOOTH",
"150 421 OFFCURVE",
"233 472 OFFCURVE",
"292 508 CURVE SMOOTH",
"320 525 OFFCURVE",
"316 549 OFFCURVE",
"292 572 CURVE SMOOTH",
"241 621 OFFCURVE",
"203 652 OFFCURVE",
"173 677 CURVE SMOOTH",
"115 726 OFFCURVE",
"55 699 OFFCURVE",
"49 630 CURVE",
"37 397 LINE SMOOTH",
"35 352 OFFCURVE",
"31 328 OFFCURVE",
"52 282 CURVE SMOOTH",
"84 210 OFFCURVE",
"160 33 OFFCURVE",
"182 0 CURVE",
"212 0 LINE",
"176 77 OFFCURVE",
"102 244 OFFCURVE",
"80 296 CURVE SMOOTH"
);
},
{
closed = 1;
nodes = (
"64 433 OFFCURVE",
"71 566 OFFCURVE",
"73 628 CURVE SMOOTH",
"75 685 OFFCURVE",
"124 692 OFFCURVE",
"153 670 CURVE",
"268 568 LINE",
"293 541 OFFCURVE",
"286 527 OFFCURVE",
"254 508 CURVE SMOOTH",
"64 397 LINE"
);
}
);
width = 357;
},
{
associatedMasterId = "8163A9A7-FEB5-4584-B00B-7D9977804228";
layerId = "90BB86C6-74E4-4154-AA15-485812D94B02";
name = "Nov 25 17, 10:55";
paths = (
{
closed = 1;
nodes = (
"174 0 LINE",
"95 0 LINE",
"95 399 LINE",
"94 418 OFFCURVE",
"111 445 OFFCURVE",
"125 466 CURVE",
"173 528 LINE",
"190 548 OFFCURVE",
"201 556 OFFCURVE",
"195 583 CURVE SMOOTH",
"191 602 OFFCURVE",
"130 672 OFFCURVE",
"105 700 CURVE",
"184 700 LINE",
"209 672 OFFCURVE",
"270 602 OFFCURVE",
"274 583 CURVE SMOOTH",
"278 565 OFFCURVE",
"278 564 OFFCURVE",
"270 553 CURVE",
"252 528 OFFCURVE",
"303 407 OFFCURVE",
"311 369 CURVE SMOOTH",
"317 341 OFFCURVE",
"303 322 OFFCURVE",
"288 322 CURVE",
"270 322 OFFCURVE",
"213 370 OFFCURVE",
"213 371 CURVE",
"174 399 LINE"
);
},
{
closed = 1;
nodes = (
"195 461 LINE",
"246 415 LINE",
"225 493 LINE",
"210 477 LINE"
);
}
);
width = 378;
},
{
associatedMasterId = "8163A9A7-FEB5-4584-B00B-7D9977804228";
layerId = "BF74E35A-99E3-4368-A5FB-1B9F27F74823";
name = "Dec 3 17, 11:52";
paths = (
{
closed = 1;
nodes = (
"252 660 OFFCURVE",
"262 511 OFFCURVE",
"235 461 CURVE SMOOTH",
"218 430 OFFCURVE",
"181 402 OFFCURVE",
"164 380 CURVE SMOOTH",
"128 334 OFFCURVE",
"170 304 OFFCURVE",
"208 261 CURVE SMOOTH",
"246 218 OFFCURVE",
"248 180 OFFCURVE",
"250 104 CURVE",
"250 0 LINE",
"226 0 LINE",
"226 104 LINE",
"224 180 OFFCURVE",
"222 218 OFFCURVE",
"184 261 CURVE SMOOTH",
"146 304 OFFCURVE",
"104 334 OFFCURVE",
"140 380 CURVE SMOOTH",
"157 402 OFFCURVE",
"194 430 OFFCURVE",
"211 461 CURVE SMOOTH",
"238 511 OFFCURVE",
"228 660 OFFCURVE",
"229 700 CURVE",
"253 700 LINE"
);
}
);
visible = 1;
width = 378;
},
{
associatedMasterId = "8163A9A7-FEB5-4584-B00B-7D9977804228";
layerId = "FA25981A-5C55-49EA-A8FC-14DDEAE23729";
name = "Dec 3 17, 11:53";
paths = (
{
closed = 1;
nodes = (
"107 324 OFFCURVE",
"110 373 OFFCURVE",
"135 386 CURVE SMOOTH",
"190 414 OFFCURVE",
"309 469 OFFCURVE",
"331 508 CURVE SMOOTH",
"355 550 OFFCURVE",
"346 566 OFFCURVE",
"282 622 CURVE SMOOTH",
"230 668 OFFCURVE",
"198 695 OFFCURVE",
"168 704 CURVE SMOOTH",
"140 712 OFFCURVE",
"120 710 OFFCURVE",
"94 702 CURVE SMOOTH",
"69 694 OFFCURVE",
"44 670 OFFCURVE",
"39 630 CURVE",
"35 386 LINE SMOOTH",
"33 274 OFFCURVE",
"62 216 OFFCURVE",
"83 170 CURVE SMOOTH",
"115 98 OFFCURVE",
"150 33 OFFCURVE",
"172 0 CURVE",
"251 0 LINE",
"215 77 OFFCURVE",
"141 244 OFFCURVE",
"119 296 CURVE SMOOTH"
);
},
{
closed = 1;
nodes = (
"110 484 OFFCURVE",
"111 551 OFFCURVE",
"110 594 CURVE SMOOTH",
"109 630 OFFCURVE",
"158 644 OFFCURVE",
"176 622 CURVE",
"218 576 LINE",
"236 551 OFFCURVE",
"255 539 OFFCURVE",
"210 511 CURVE SMOOTH",
"110 448 LINE"
);
}
);
width = 378;
}
);
unicode = 0050;
},
{
glyphname = Q;
lastChange = "2017-11-25 10:03:41 +0000";
layers = (
{
layerId = "8163A9A7-FEB5-4584-B00B-7D9977804228";
paths = (
{
closed = 1;
nodes = (
"170 -42 OFFCURVE",
"384 -20 OFFCURVE",
"434 81 CURVE SMOOTH",
"484 182 OFFCURVE",
"525 221 OFFCURVE",
"514 329 CURVE SMOOTH",
"503 437 OFFCURVE",
"633 574 OFFCURVE",
"524 607 CURVE SMOOTH",
"415 640 OFFCURVE",
"434 712 OFFCURVE",
"287 712 CURVE SMOOTH",
"178 712 OFFCURVE",
"73 607 OFFCURVE",
"66 487 CURVE",
"66 476 OFFCURVE",
"66 465 OFFCURVE",
"65 455 CURVE SMOOTH",
"54 336 OFFCURVE",
"-2 212 OFFCURVE",
"103 49 CURVE"
);
},
{
closed = 1;
nodes = (
"219 -200 LINE",
"219 -96 LINE",
"217 -20 OFFCURVE",
"215 18 OFFCURVE",
"177 61 CURVE",
"98 61 LINE",
"136 18 OFFCURVE",
"138 -20 OFFCURVE",
"140 -96 CURVE",
"140 -200 LINE"
);
},
{
closed = 1;
nodes = (
"86 253 OFFCURVE",
"126 341 OFFCURVE",
"134 425 CURVE SMOOTH",
"135 432 OFFCURVE",
"135 440 OFFCURVE",
"135 448 CURVE",
"140 533 OFFCURVE",
"214 608 OFFCURVE",
"292 608 CURVE SMOOTH",
"396 608 OFFCURVE",
"383 557 OFFCURVE",
"460 533 CURVE SMOOTH",
"538 510 OFFCURVE",
"446 412 OFFCURVE",
"453 336 CURVE SMOOTH",
"461 259 OFFCURVE",
"432 231 OFFCURVE",
"396 159 CURVE SMOOTH",
"361 88 OFFCURVE",
"209 72 OFFCURVE",
"161 137 CURVE"
);
}
);
width = 600;
}
);
unicode = 0051;
},
{
glyphname = R;
lastChange = "2017-11-25 16:47:00 +0000";
layers = (
{
layerId = "8163A9A7-FEB5-4584-B00B-7D9977804228";
paths = (
{
closed = 1;
nodes = (
"168 155 OFFCURVE",
"229 235 OFFCURVE",
"267 188 CURVE",
"359 38 LINE",
"434 82 LINE",
"343 232 LINE",
"304 279 OFFCURVE",
"201 208 OFFCURVE",
"201 293 CURVE SMOOTH",
"201 316 OFFCURVE",
"227 320 OFFCURVE",
"256 320 CURVE",
"286 319 OFFCURVE",
"380 327 OFFCURVE",
"401 374 CURVE SMOOTH",
"413 401 OFFCURVE",
"408 430 OFFCURVE",
"386 460 CURVE",
"250 655 LINE SMOOTH",
"198 730 OFFCURVE",
"133 721 OFFCURVE",
"76 672 CURVE SMOOTH",
"46 645 OFFCURVE",
"35 638 OFFCURVE",
"35 600 CURVE",
"35 269 LINE",
"35 201 OFFCURVE",
"118 145 OFFCURVE",
"118 92 CURVE SMOOTH",
"118 45 OFFCURVE",
"114 29 OFFCURVE",
"113 -2 CURVE",
"200 -2 LINE",
"201 29 OFFCURVE",
"204 45 OFFCURVE",
"204 92 CURVE SMOOTH",
"204 145 OFFCURVE",
"120 201 OFFCURVE",
"121 269 CURVE SMOOTH",
"124 536 LINE SMOOTH",
"125 559 OFFCURVE",
"123 587 OFFCURVE",
"133 601 CURVE SMOOTH",
"148 623 OFFCURVE",
"173 624 OFFCURVE",
"190 603 CURVE",
"272 486 LINE SMOOTH",
"293 456 OFFCURVE",
"339 383 OFFCURVE",
"212 388 CURVE SMOOTH",
"157 390 OFFCURVE",
"135 359 OFFCURVE",
"148 279 CURVE SMOOTH"
);
}
);
width = 528;
},
{
associatedMasterId = "8163A9A7-FEB5-4584-B00B-7D9977804228";
backgroundImage = {
crop = "{{0, 0}, {257, 169}}";
imagePath = "../Desktop/Capture d’écran 2017-11-14 à 12.15.16.png";
locked = "1";
transform = "{0, 4, -4, 0, 596, -15}";
};
layerId = "235B255C-8C13-46A0-9C73-65ED52D02AF8";
name = "Nov 25 17, 17:35";
paths = (
{
closed = 1;
nodes = (
"-125 658 OFFCURVE",
"-115 509 OFFCURVE",
"-142 459 CURVE SMOOTH",
"-159 428 OFFCURVE",
"-196 400 OFFCURVE",
"-213 378 CURVE SMOOTH",
"-249 332 OFFCURVE",
"-207 302 OFFCURVE",
"-169 259 CURVE SMOOTH",
"-131 216 OFFCURVE",
"-129 178 OFFCURVE",
"-127 102 CURVE",
"-127 -2 LINE",
"-206 -2 LINE",
"-206 102 LINE",
"-208 178 OFFCURVE",
"-210 216 OFFCURVE",
"-248 259 CURVE SMOOTH",
"-286 302 OFFCURVE",
"-328 332 OFFCURVE",
"-292 378 CURVE SMOOTH",
"-275 400 OFFCURVE",
"-238 428 OFFCURVE",
"-221 459 CURVE SMOOTH",
"-194 509 OFFCURVE",
"-204 658 OFFCURVE",
"-203 698 CURVE",
"-124 698 LINE"
);
},
{
closed = 1;
nodes = (
"414 352 OFFCURVE",
"389 358 OFFCURVE",
"362 357 CURVE SMOOTH",
"245 352 OFFCURVE",
"287 420 OFFCURVE",
"307 447 CURVE SMOOTH",
"382 554 LINE",
"397 573 OFFCURVE",
"421 572 OFFCURVE",
"434 552 CURVE SMOOTH",
"443 539 OFFCURVE",
"442 514 OFFCURVE",
"442 493 CURVE SMOOTH",
"445 248 LINE SMOOTH",
"446 186 OFFCURVE",
"369 135 OFFCURVE",
"369 86 CURVE SMOOTH",
"369 43 OFFCURVE",
"372 29 OFFCURVE",
"373 0 CURVE",
"452 0 LINE",
"451 29 OFFCURVE",
"448 43 OFFCURVE",
"448 86 CURVE SMOOTH",
"448 135 OFFCURVE",
"524 186 OFFCURVE",
"524 248 CURVE",
"524 551 LINE",
"524 586 OFFCURVE",
"514 593 OFFCURVE",
"486 617 CURVE SMOOTH",
"434 662 OFFCURVE",
"375 670 OFFCURVE",
"327 602 CURVE SMOOTH",
"202 423 LINE",
"182 396 OFFCURVE",
"178 369 OFFCURVE",
"189 344 CURVE SMOOTH",
"208 301 OFFCURVE",
"294 294 OFFCURVE",
"321 295 CURVE",
"348 295 OFFCURVE",
"372 291 OFFCURVE",
"372 270 CURVE SMOOTH",
"373 192 OFFCURVE",
"277 257 OFFCURVE",
"242 214 CURVE",
"158 77 LINE",
"227 37 LINE",
"311 174 LINE",
"346 217 OFFCURVE",
"414 152 OFFCURVE",
"414 230 CURVE SMOOTH",
"414 299 LINE"
);
}
);
width = 600;
}
);
unicode = 0052;
},
{
glyphname = S;
lastChange = "2017-12-03 13:28:13 +0000";
layers = (
{
layerId = "8163A9A7-FEB5-4584-B00B-7D9977804228";
paths = (
{
closed = 1;
nodes = (
"182 561 OFFCURVE",
"200 432 OFFCURVE",
"269 291 CURVE SMOOTH",
"309 210 OFFCURVE",
"327 132 OFFCURVE",
"329 121 CURVE SMOOTH",
"351 11 OFFCURVE",
"305 -48 OFFCURVE",
"245 -6 CURVE",
"40 157 LINE",
"54 173 LINE",
"79 154 OFFCURVE",
"228 34 OFFCURVE",
"251 18 CURVE SMOOTH",
"309 -21 OFFCURVE",
"320 25 OFFCURVE",
"302 114 CURVE SMOOTH",
"300 124 OFFCURVE",
"289 195 OFFCURVE",
"247 280 CURVE SMOOTH",
"176 425 OFFCURVE",
"129 624 OFFCURVE",
"160 678 CURVE SMOOTH",
"192 734 OFFCURVE",
"258 686 OFFCURVE",
"317 638 CURVE",
"395 570 LINE",
"381 551 LINE",
"274 644 LINE",
"211 700 OFFCURVE",
"182 695 OFFCURVE",
"182 615 CURVE"
);
}
);
width = 435;
},
{
associatedMasterId = "8163A9A7-FEB5-4584-B00B-7D9977804228";
layerId = "B356173D-4FD0-46DB-B241-982D097AAFCC";
name = "Dec 3 17, 14:22";
paths = (
{
closed = 1;
nodes = (
"247 561 OFFCURVE",
"276 412 OFFCURVE",
"334 291 CURVE SMOOTH",
"374 207 OFFCURVE",
"390 132 OFFCURVE",
"394 121 CURVE SMOOTH",
"429 26 OFFCURVE",
"371 -45 OFFCURVE",
"310 -6 CURVE",
"40 157 LINE",
"79 228 LINE",
"104 213 OFFCURVE",
"268 114 OFFCURVE",
"292 99 CURVE SMOOTH",
"308 89 OFFCURVE",
"319 100 OFFCURVE",
"312 115 CURVE SMOOTH",
"308 125 OFFCURVE",
"289 195 OFFCURVE",
"247 280 CURVE SMOOTH",
"176 425 OFFCURVE",
"130 623 OFFCURVE",
"160 678 CURVE SMOOTH",
"176 707 OFFCURVE",
"201 730 OFFCURVE",
"264 713 CURVE SMOOTH",
"309 701 OFFCURVE",
"336 676 OFFCURVE",
"382 638 CURVE",
"460 570 LINE",
"409 510 LINE",
"272 629 LINE",
"254 642 OFFCURVE",
"247 624 OFFCURVE",
"247 615 CURVE"
);
}
);
width = 500;
},
{
associatedMasterId = "8163A9A7-FEB5-4584-B00B-7D9977804228";
layerId = "1B282E8B-E3F1-476C-A241-3BD367FDC52A";
name = "Dec 3 17, 14:22";
paths = (
{
closed = 1;
nodes = (
"-252 442 OFFCURVE",
"-132 353 OFFCURVE",
"-110 301 CURVE SMOOTH",
"-96 268 OFFCURVE",
"-100 222 OFFCURVE",
"-94 195 CURVE SMOOTH",
"-81 138 OFFCURVE",
"-33 150 OFFCURVE",
"25 152 CURVE SMOOTH",
"82 154 OFFCURVE",
"113 131 OFFCURVE",
"172 83 CURVE",
"252 16 LINE",
"237 -2 LINE",
"156 66 LINE",
"97 112 OFFCURVE",
"68 135 OFFCURVE",
"9 134 CURVE SMOOTH",
"-47 133 OFFCURVE",
"-97 120 OFFCURVE",
"-110 177 CURVE SMOOTH",
"-116 203 OFFCURVE",
"-114 250 OFFCURVE",
"-127 283 CURVE SMOOTH",
"-147 335 OFFCURVE",
"-267 424 OFFCURVE",
"-298 450 CURVE",
"-282 469 LINE"
);
}
);
width = 500;
},
{
associatedMasterId = "8163A9A7-FEB5-4584-B00B-7D9977804228";
layerId = "B6610D7E-0C50-46DA-8246-E5954EE04BB2";
name = "Dec 3 17, 14:25";
paths = (
{
closed = 1;
nodes = (
"182 561 OFFCURVE",
"211 412 OFFCURVE",
"269 291 CURVE SMOOTH",
"309 207 OFFCURVE",
"326 132 OFFCURVE",
"329 121 CURVE SMOOTH",
"351 26 OFFCURVE",
"306 -45 OFFCURVE",
"245 -6 CURVE",
"40 157 LINE",
"79 228 LINE",
"104 213 OFFCURVE",
"268 114 OFFCURVE",
"292 99 CURVE SMOOTH",
"308 89 OFFCURVE",
"319 95 OFFCURVE",
"312 115 CURVE SMOOTH",
"309 125 OFFCURVE",
"289 195 OFFCURVE",
"247 280 CURVE SMOOTH",
"176 425 OFFCURVE",
"129 624 OFFCURVE",
"160 678 CURVE SMOOTH",
"192 734 OFFCURVE",
"258 686 OFFCURVE",
"317 638 CURVE",
"395 570 LINE",
"381 551 LINE",
"274 644 LINE",
"211 700 OFFCURVE",
"182 695 OFFCURVE",
"182 615 CURVE"
);
}
);
width = 500;
}
);
unicode = 0053;
},
{
glyphname = T;
lastChange = "2017-12-02 19:47:17 +0000";
layers = (
{
layerId = "8163A9A7-FEB5-4584-B00B-7D9977804228";
paths = (
{
closed = 1;
nodes = (
"324 549 OFFCURVE",
"339 546 OFFCURVE",
"457 582 CURVE",
"450 595 LINE",
"403 568 OFFCURVE",
"270 545 OFFCURVE",
"270 546 CURVE",
"271 610 OFFCURVE",
"269 680 OFFCURVE",
"269 700 CURVE",
"246 700 LINE",
"246 681 OFFCURVE",
"247 614 OFFCURVE",
"247 545 CURVE",
"174 544 OFFCURVE",
"107 504 OFFCURVE",
"58 483 CURVE",
"74 473 LINE",
"94 474 OFFCURVE",
"152 529 OFFCURVE",
"246 533 CURVE",
"245 499 OFFCURVE",
"242 417 OFFCURVE",
"237 401 CURVE SMOOTH",
"220 343 OFFCURVE",
"192 296 OFFCURVE",
"133 240 CURVE SMOOTH",
"74 184 OFFCURVE",
"40 80 OFFCURVE",
"35 0 CURVE",
"60 0 LINE",
"65 80 OFFCURVE",
"99 184 OFFCURVE",
"158 240 CURVE SMOOTH",
"217 296 OFFCURVE",
"242 343 OFFCURVE",
"260 401 CURVE SMOOTH",
"265 417 OFFCURVE",
"268 499 OFFCURVE",
"269 533 CURVE"
);
}
);
width = 492;
},
{
associatedMasterId = "8163A9A7-FEB5-4584-B00B-7D9977804228";
layerId = "04C176FC-780C-4181-908F-575E6CC92A0A";
name = "Dec 2 17, 20:44";
paths = (
{
closed = 1;
nodes = (
"118 660 OFFCURVE",
"128 511 OFFCURVE",
"101 461 CURVE SMOOTH",
"84 430 OFFCURVE",
"47 402 OFFCURVE",
"30 380 CURVE SMOOTH",
"-6 334 OFFCURVE",
"36 304 OFFCURVE",
"74 261 CURVE SMOOTH",
"112 218 OFFCURVE",
"114 180 OFFCURVE",
"116 104 CURVE",
"116 0 LINE",
"92 0 LINE",
"92 104 LINE",
"90 180 OFFCURVE",
"88 218 OFFCURVE",
"50 261 CURVE SMOOTH",
"12 304 OFFCURVE",
"-30 334 OFFCURVE",
"6 380 CURVE SMOOTH",
"23 402 OFFCURVE",
"60 430 OFFCURVE",
"77 461 CURVE SMOOTH",
"104 511 OFFCURVE",
"94 660 OFFCURVE",
"95 700 CURVE",
"119 700 LINE"
);
}
);
width = 571;
},
{
associatedMasterId = "8163A9A7-FEB5-4584-B00B-7D9977804228";
layerId = "86CA0F57-6892-41FE-A61A-BDD113028A93";
name = "Dec 2 17, 20:44";
paths = (
{
closed = 1;
nodes = (
"324 549 OFFCURVE",
"339 546 OFFCURVE",
"457 582 CURVE",
"450 595 LINE",
"403 568 OFFCURVE",
"270 545 OFFCURVE",
"270 546 CURVE",
"271 610 OFFCURVE",
"269 680 OFFCURVE",
"269 700 CURVE",
"246 700 LINE",
"246 681 OFFCURVE",
"247 614 OFFCURVE",
"247 545 CURVE",
"174 544 OFFCURVE",
"107 504 OFFCURVE",
"58 483 CURVE",
"74 473 LINE",
"94 474 OFFCURVE",
"152 529 OFFCURVE",
"246 533 CURVE",
"245 499 OFFCURVE",
"242 417 OFFCURVE",
"237 401 CURVE SMOOTH",
"220 343 OFFCURVE",
"192 296 OFFCURVE",
"133 240 CURVE SMOOTH",
"74 184 OFFCURVE",
"40 80 OFFCURVE",
"35 0 CURVE",
"60 0 LINE",
"65 80 OFFCURVE",
"99 184 OFFCURVE",
"158 240 CURVE SMOOTH",
"217 296 OFFCURVE",
"242 343 OFFCURVE",
"260 401 CURVE SMOOTH",
"265 417 OFFCURVE",
"268 499 OFFCURVE",
"269 533 CURVE"
);
}
);
visible = 1;
width = 492;
},
{
associatedMasterId = "8163A9A7-FEB5-4584-B00B-7D9977804228";
layerId = "EFB8D511-2E1C-475A-B31D-B7EE7545921C";
name = "Dec 2 17, 20:47";
paths = (
{
closed = 1;
nodes = (
"375 499 OFFCURVE",
"423 493 OFFCURVE",
"541 529 CURVE",
"504 595 LINE",
"457 568 OFFCURVE",
"321 543 OFFCURVE",
"321 544 CURVE",
"322 608 OFFCURVE",
"323 680 OFFCURVE",
"323 700 CURVE",
"298 700 LINE",
"298 681 OFFCURVE",
"301 614 OFFCURVE",
"301 545 CURVE",
"228 544 OFFCURVE",
"161 504 OFFCURVE",
"112 483 CURVE",
"151 415 LINE",
"171 416 OFFCURVE",
"206 482 OFFCURVE",
"300 482 CURVE",
"299 448 OFFCURVE",
"296 417 OFFCURVE",
"291 401 CURVE SMOOTH",
"274 343 OFFCURVE",
"246 296 OFFCURVE",
"187 240 CURVE SMOOTH",
"128 184 OFFCURVE",
"94 80 OFFCURVE",
"89 0 CURVE",
"114 0 LINE",
"114 49 OFFCURVE",
"130 116 OFFCURVE",
"145 140 CURVE SMOOTH",
"182 199 OFFCURVE",
"310 299 OFFCURVE",
"318 442 CURVE SMOOTH",
"319 448 OFFCURVE",
"319 464 OFFCURVE",
"320 483 CURVE"
);
}
);
width = 571;
}
);
unicode = 0054;
},
{
glyphname = U;
lastChange = "2017-11-18 13:14:39 +0000";
layers = (
{
layerId = "8163A9A7-FEB5-4584-B00B-7D9977804228";
paths = (
{
closed = 1;
nodes = (
"355 187 OFFCURVE",
"383 273 OFFCURVE",
"383 385 CURVE SMOOTH",
"383 415 OFFCURVE",
"384 538 OFFCURVE",
"384 700 CURVE",
"463 700 LINE",
"463 538 OFFCURVE",
"463 415 OFFCURVE",
"463 385 CURVE SMOOTH",
"463 273 OFFCURVE",
"441 187 OFFCURVE",
"432 142 CURVE SMOOTH",
"425 108 OFFCURVE",
"401 37 OFFCURVE",
"355 0 CURVE SMOOTH",
"335 -16 OFFCURVE",
"292 -18 OFFCURVE",
"257 4 CURVE",
"105 82 LINE",
"71 99 OFFCURVE",
"21 111 OFFCURVE",
"39 187 CURVE SMOOTH",
"57 263 OFFCURVE",
"85 363 OFFCURVE",
"105 451 CURVE SMOOTH",
"125 539 OFFCURVE",
"139 605 OFFCURVE",
"156 700 CURVE",
"235 700 LINE",
"218 605 OFFCURVE",
"207 538 OFFCURVE",
"184 451 CURVE SMOOTH",
"171 402 OFFCURVE",
"148 314 OFFCURVE",
"139 273 CURVE SMOOTH",
"129 227 OFFCURVE",
"113 195 OFFCURVE",
"160 167 CURVE SMOOTH",
"204 141 OFFCURVE",
"319 71 OFFCURVE",
"341 142 CURVE"
);
}
);
width = 498;
}
);
unicode = 0055;
},
{
glyphname = V;
lastChange = "2017-12-03 12:41:33 +0000";
layers = (
{
layerId = "8163A9A7-FEB5-4584-B00B-7D9977804228";
paths = (
{
closed = 1;
nodes = (
"258 0 LINE",
"242 25 OFFCURVE",
"60 316 OFFCURVE",
"38 373 CURVE SMOOTH",
"30 395 OFFCURVE",
"66 423 OFFCURVE",
"74 453 CURVE SMOOTH",
"82 483 OFFCURVE",
"54 571 OFFCURVE",
"54 653 CURVE",
"54 700 LINE",
"77 700 LINE",
"77 653 LINE",
"77 568 OFFCURVE",
"104 483 OFFCURVE",
"96 453 CURVE SMOOTH",
"88 423 OFFCURVE",
"52 398 OFFCURVE",
"60 373 CURVE SMOOTH",
"73 331 OFFCURVE",
"197 143 OFFCURVE",
"203 133 CURVE SMOOTH",
"234 81 OFFCURVE",
"242 85 OFFCURVE",
"234 141 CURVE SMOOTH",
"227 189 OFFCURVE",
"213 231 OFFCURVE",
"199 264 CURVE SMOOTH",
"157 362 OFFCURVE",
"171 354 OFFCURVE",
"187 399 CURVE SMOOTH",
"208 457 OFFCURVE",
"203 584 OFFCURVE",
"204 653 CURVE",
"204 700 LINE",
"227 700 LINE",
"227 653 LINE SMOOTH",
"227 606 OFFCURVE",
"228 500 OFFCURVE",
"228 473 CURVE SMOOTH",
"228 395 OFFCURVE",
"175 385 OFFCURVE",
"195 339 CURVE SMOOTH",
"215 293 OFFCURVE",
"258 195 OFFCURVE",
"272 0 CURVE"
);
}
);
width = 307;
},
{
associatedMasterId = "8163A9A7-FEB5-4584-B00B-7D9977804228";
backgroundImage = {
crop = "{{0, 0}, {237, 455}}";
imagePath = ../Desktop/V.png;
locked = "1";
transform = "{-2.5, 0, 0, -2.5, 684, 804}";
};
layerId = "5A0F0CF8-5D8C-40B0-9137-5EC2E1A1A9A2";
name = "Nov 25 17, 12:40";
paths = (
{
closed = 1;
nodes = (
"-172 660 OFFCURVE",
"-162 511 OFFCURVE",
"-189 461 CURVE SMOOTH",
"-206 430 OFFCURVE",
"-243 402 OFFCURVE",
"-260 380 CURVE SMOOTH",
"-296 334 OFFCURVE",
"-254 304 OFFCURVE",
"-216 261 CURVE SMOOTH",
"-178 218 OFFCURVE",
"-176 180 OFFCURVE",
"-174 104 CURVE",
"-174 0 LINE",
"-253 0 LINE",
"-253 104 LINE",
"-255 180 OFFCURVE",
"-257 218 OFFCURVE",
"-295 261 CURVE SMOOTH",
"-333 304 OFFCURVE",
"-375 334 OFFCURVE",
"-339 380 CURVE SMOOTH",
"-322 402 OFFCURVE",
"-285 430 OFFCURVE",
"-268 461 CURVE SMOOTH",
"-241 511 OFFCURVE",
"-251 660 OFFCURVE",
"-250 700 CURVE",
"-171 700 LINE"
);
},
{
closed = 0;
nodes = (
"405 653 LINE",
"405 700 LINE",
"484 700 LINE",
"484 653 LINE"
);
},
{
closed = 0;
nodes = (
"417 195 LINE SMOOTH",
"398 220 OFFCURVE",
"274 331 OFFCURVE",
"261 373 CURVE SMOOTH",
"253 398 OFFCURVE",
"289 423 OFFCURVE",
"297 453 CURVE SMOOTH",
"305 483 OFFCURVE",
"278 568 OFFCURVE",
"278 653 CURVE",
"278 700 LINE",
"199 700 LINE",
"199 653 LINE",
"199 571 OFFCURVE",
"227 483 OFFCURVE",
"219 453 CURVE SMOOTH",
"211 423 OFFCURVE",
"175 398 OFFCURVE",
"183 373 CURVE SMOOTH",
"196 331 OFFCURVE",
"431 25 OFFCURVE",
"450 0 CURVE",
"529 0 LINE"
);
}
);
width = 600;
},
{
associatedMasterId = "8163A9A7-FEB5-4584-B00B-7D9977804228";
layerId = "45EC0503-1542-4279-8E98-D4A79EDE0163";
name = "Dec 3 17, 13:29";
paths = (
{
closed = 1;
nodes = (
"285 660 OFFCURVE",
"295 511 OFFCURVE",
"268 461 CURVE SMOOTH",
"251 430 OFFCURVE",
"214 402 OFFCURVE",
"197 380 CURVE SMOOTH",
"161 334 OFFCURVE",
"203 304 OFFCURVE",
"241 261 CURVE SMOOTH",
"279 218 OFFCURVE",
"281 180 OFFCURVE",
"283 104 CURVE",
"283 0 LINE",
"259 0 LINE",
"259 104 LINE",
"257 180 OFFCURVE",
"255 218 OFFCURVE",
"217 261 CURVE SMOOTH",
"179 304 OFFCURVE",
"137 334 OFFCURVE",
"173 380 CURVE SMOOTH",
"190 402 OFFCURVE",
"227 430 OFFCURVE",
"244 461 CURVE SMOOTH",
"271 511 OFFCURVE",
"261 660 OFFCURVE",
"262 700 CURVE",
"286 700 LINE"
);
}
);
width = 427;
}
);
unicode = 0056;
},
{
glyphname = W;
lastChange = "2017-12-03 14:02:18 +0000";
layers = (
{
layerId = "8163A9A7-FEB5-4584-B00B-7D9977804228";
paths = (
{
closed = 1;
nodes = (
"76 82 OFFCURVE",
"65 96 OFFCURVE",
"61 215 CURVE SMOOTH",
"59 280 OFFCURVE",
"67 316 OFFCURVE",
"77 345 CURVE SMOOTH",
"87 374 OFFCURVE",
"73 439 OFFCURVE",
"70 468 CURVE SMOOTH",
"67 497 OFFCURVE",
"76 540 OFFCURVE",
"85 579 CURVE SMOOTH",
"113 700 LINE",
"93 700 LINE",
"64 579 LINE SMOOTH",
"55 540 OFFCURVE",
"46 497 OFFCURVE",
"49 468 CURVE SMOOTH",
"52 439 OFFCURVE",
"66 374 OFFCURVE",
"56 345 CURVE SMOOTH",
"46 316 OFFCURVE",
"38 280 OFFCURVE",
"40 215 CURVE SMOOTH",
"44 96 OFFCURVE",
"56 82 OFFCURVE",
"85 0 CURVE",
"105 0 LINE"
);
},
{
closed = 1;
nodes = (
"195 121 OFFCURVE",
"181 142 OFFCURVE",
"181 142 CURVE",
"139 86 LINE SMOOTH",
"115 54 OFFCURVE",
"89 20 OFFCURVE",
"89 20 CURVE",
"105 0 LINE",
"119 18 OFFCURVE",
"129 33 OFFCURVE",
"153 65 CURVE SMOOTH",
"195 121 LINE"
);
},
{
closed = 1;
nodes = (
"296 90 LINE",
"278 120 OFFCURVE",
"281 118 OFFCURVE",
"244 301 CURVE SMOOTH",
"235 345 OFFCURVE",
"250 446 OFFCURVE",
"268 506 CURVE SMOOTH",
"286 566 OFFCURVE",
"308 648 OFFCURVE",
"321 700 CURVE",
"300 700 LINE",
"287 648 OFFCURVE",
"265 566 OFFCURVE",
"247 506 CURVE SMOOTH",
"229 446 OFFCURVE",
"214 344 OFFCURVE",
"223 301 CURVE SMOOTH",
"260 121 LINE",
"219 114 OFFCURVE",
"220 138 OFFCURVE",
"143 338 CURVE",
"128 328 LINE",
"195 155 OFFCURVE",
"207 94 OFFCURVE",
"271 90 CURVE"
);
}
);
width = 361;
},
{
associatedMasterId = "8163A9A7-FEB5-4584-B00B-7D9977804228";
layerId = "ECBFEFED-FC98-45CB-B94F-8F94242C197F";
name = "Dec 3 17, 15:01";
paths = (
{
closed = 1;
nodes = (
"130 82 OFFCURVE",
"119 96 OFFCURVE",
"115 215 CURVE SMOOTH",
"113 280 OFFCURVE",
"121 316 OFFCURVE",
"131 345 CURVE SMOOTH",
"141 374 OFFCURVE",
"127 430 OFFCURVE",
"124 459 CURVE SMOOTH",
"121 488 OFFCURVE",
"131 531 OFFCURVE",
"139 570 CURVE SMOOTH",
"167 700 LINE",
"88 700 LINE",
"59 570 LINE SMOOTH",
"50 531 OFFCURVE",
"41 488 OFFCURVE",
"44 459 CURVE SMOOTH",
"47 430 OFFCURVE",
"61 374 OFFCURVE",
"51 345 CURVE SMOOTH",
"41 316 OFFCURVE",
"33 280 OFFCURVE",
"35 215 CURVE SMOOTH",
"39 96 OFFCURVE",
"51 82 OFFCURVE",
"80 0 CURVE",
"159 0 LINE"
);
},
{
closed = 1;
nodes = (
"232 151 OFFCURVE",
"231 148 OFFCURVE",
"217 171 CURVE",
"175 115 LINE SMOOTH",
"151 83 OFFCURVE",
"148 79 OFFCURVE",
"134 61 CURVE",
"159 0 LINE",
"173 18 OFFCURVE",
"183 33 OFFCURVE",
"207 65 CURVE SMOOTH",
"249 121 LINE"
);
},
{
closed = 1;
nodes = (
"325 90 LINE",
"404 90 LINE",
"345 211 OFFCURVE",
"389 118 OFFCURVE",
"352 301 CURVE SMOOTH",
"343 345 OFFCURVE",
"358 437 OFFCURVE",
"376 497 CURVE SMOOTH",
"394 557 OFFCURVE",
"416 648 OFFCURVE",
"429 700 CURVE",
"354 700 LINE",
"341 648 OFFCURVE",
"319 557 OFFCURVE",
"301 497 CURVE SMOOTH",
"283 437 OFFCURVE",
"268 345 OFFCURVE",
"277 301 CURVE SMOOTH",
"300 186 LINE",
"277 169 OFFCURVE",
"260 234 OFFCURVE",
"249 271 CURVE",
"221 357 LINE",
"182 328 LINE",
"231 195 LINE",
"263 127 OFFCURVE",
"303 103 OFFCURVE",
"325 90 CURVE"
);
}
);
width = 464;
},
{
associatedMasterId = "8163A9A7-FEB5-4584-B00B-7D9977804228";
layerId = "994C41F7-3BAD-4172-A87C-835ADE9BBD30";
name = "Dec 3 17, 15:01";
paths = (
{
closed = 1;
nodes = (
"76 82 OFFCURVE",
"65 96 OFFCURVE",
"61 215 CURVE SMOOTH",
"59 280 OFFCURVE",
"67 316 OFFCURVE",
"77 345 CURVE SMOOTH",
"87 374 OFFCURVE",
"73 439 OFFCURVE",
"70 468 CURVE SMOOTH",
"67 497 OFFCURVE",
"76 540 OFFCURVE",
"85 579 CURVE SMOOTH",
"113 700 LINE",
"93 700 LINE",
"64 579 LINE SMOOTH",
"55 540 OFFCURVE",
"46 497 OFFCURVE",
"49 468 CURVE SMOOTH",
"52 439 OFFCURVE",
"66 374 OFFCURVE",
"56 345 CURVE SMOOTH",
"46 316 OFFCURVE",
"38 280 OFFCURVE",
"40 215 CURVE SMOOTH",
"44 96 OFFCURVE",
"56 82 OFFCURVE",
"85 0 CURVE",
"105 0 LINE"
);
},
{
closed = 1;
nodes = (
"195 121 OFFCURVE",
"181 142 OFFCURVE",
"181 142 CURVE",
"139 86 LINE SMOOTH",
"115 54 OFFCURVE",
"89 20 OFFCURVE",
"89 20 CURVE",
"105 0 LINE",
"119 18 OFFCURVE",
"129 33 OFFCURVE",
"153 65 CURVE SMOOTH",
"195 121 LINE"
);
},
{
closed = 1;
nodes = (
"296 90 LINE",
"278 120 OFFCURVE",
"281 118 OFFCURVE",
"244 301 CURVE SMOOTH",
"235 345 OFFCURVE",
"250 446 OFFCURVE",
"268 506 CURVE SMOOTH",
"286 566 OFFCURVE",
"308 648 OFFCURVE",
"321 700 CURVE",
"300 700 LINE",
"287 648 OFFCURVE",
"265 566 OFFCURVE",
"247 506 CURVE SMOOTH",
"229 446 OFFCURVE",
"214 344 OFFCURVE",
"223 301 CURVE SMOOTH",
"260 121 LINE",
"219 114 OFFCURVE",
"220 138 OFFCURVE",
"143 338 CURVE",
"128 328 LINE",
"195 155 OFFCURVE",
"207 94 OFFCURVE",
"271 90 CURVE"
);
}
);
width = 361;
}
);
unicode = 0057;
},
{
glyphname = X;
lastChange = "2017-12-03 12:36:26 +0000";
layers = (
{
layerId = "8163A9A7-FEB5-4584-B00B-7D9977804228";
paths = (
{
closed = 1;
nodes = (
"335 8 LINE",
"320 31 OFFCURVE",
"176 188 OFFCURVE",
"141 242 CURVE SMOOTH",
"106 295 OFFCURVE",
"77 329 OFFCURVE",
"74 408 CURVE SMOOTH",
"71 494 OFFCURVE",
"75 604 OFFCURVE",
"71 687 CURVE",
"94 700 LINE",
"98 616 OFFCURVE",
"95 506 OFFCURVE",
"97 420 CURVE SMOOTH",
"99 335 OFFCURVE",
"130 308 OFFCURVE",
"165 255 CURVE",
"200 202 OFFCURVE",
"330 57 OFFCURVE",
"346 34 CURVE"
);
},
{
closed = 1;
nodes = (
"35 32 LINE",
"50 185 OFFCURVE",
"109 151 OFFCURVE",
"206 355 CURVE SMOOTH",
"234 414 OFFCURVE",
"141 456 OFFCURVE",
"185 544 CURVE",
"251 700 LINE",
"270 691 LINE",
"204 536 LINE",
"173 448 OFFCURVE",
"253 406 OFFCURVE",
"225 347 CURVE SMOOTH",
"128 143 OFFCURVE",
"66 153 OFFCURVE",
"52 0 CURVE"
);
}
);
width = 381;
},
{
associatedMasterId = "8163A9A7-FEB5-4584-B00B-7D9977804228";
backgroundImage = {
crop = "{{0, 0}, {150, 271}}";
imagePath = "../Desktop/I - X.png";
locked = "1";
transform = "{7.5, 0, 0, 7.5, -172, -921}";
};
layerId = "E87EC45F-3776-4272-8816-FEDFEEC64796";
name = "Nov 25 17, 17:46";
paths = (
{
closed = 1;
nodes = (
"293 0 LINE",
"287 26 OFFCURVE",
"216 199 OFFCURVE",
"202 259 CURVE SMOOTH",
"188 319 OFFCURVE",
"172 358 OFFCURVE",
"196 431 CURVE SMOOTH",
"222 509 OFFCURVE",
"267 624 OFFCURVE",
"291 700 CURVE",
"370 700 LINE",
"346 624 OFFCURVE",
"301 509 OFFCURVE",
"275 431 CURVE SMOOTH",
"249 353 OFFCURVE",
"267 319 OFFCURVE",
"281 259 CURVE SMOOTH",
"295 199 OFFCURVE",
"366 26 OFFCURVE",
"372 0 CURVE"
);
},
{
closed = 1;
nodes = (
"59 148 LINE",
"122 281 OFFCURVE",
"147 210 OFFCURVE",
"300 363 CURVE SMOOTH",
"346 407 OFFCURVE",
"291 477 OFFCURVE",
"344 541 CURVE",
"452 654 LINE",
"512 603 LINE",
"404 490 LINE",
"351 426 OFFCURVE",
"405 357 OFFCURVE",
"360 312 CURVE SMOOTH",
"207 159 OFFCURVE",
"161 213 OFFCURVE",
"98 80 CURVE"
);
}
);
width = 600;
},
{
associatedMasterId = "8163A9A7-FEB5-4584-B00B-7D9977804228";
layerId = "707AD4C0-DCB0-4548-8928-699FEB9DCA99";
name = "Dec 3 17, 13:32";
paths = (
{
closed = 1;
nodes = (
"316 -2 LINE",
"301 21 OFFCURVE",
"170 164 OFFCURVE",
"135 218 CURVE SMOOTH",
"100 271 OFFCURVE",
"71 305 OFFCURVE",
"68 384 CURVE SMOOTH",
"65 470 OFFCURVE",
"69 598 OFFCURVE",
"65 681 CURVE",
"142 710 LINE",
"146 626 OFFCURVE",
"143 498 OFFCURVE",
"145 412 CURVE SMOOTH",
"147 327 OFFCURVE",
"178 300 OFFCURVE",
"213 247 CURVE SMOOTH",
"248 194 OFFCURVE",
"378 49 OFFCURVE",
"394 26 CURVE"
);
},
{
closed = 1;
nodes = (
"35 58 LINE",
"50 211 OFFCURVE",
"97 151 OFFCURVE",
"194 355 CURVE SMOOTH",
"222 414 OFFCURVE",
"144 463 OFFCURVE",
"173 544 CURVE",
"239 694 LINE",
"316 665 LINE",
"250 516 LINE",
"221 435 OFFCURVE",
"299 386 OFFCURVE",
"271 327 CURVE SMOOTH",
"174 123 OFFCURVE",
"112 159 OFFCURVE",
"98 6 CURVE"
);
}
);
visible = 1;
width = 429;
},
{
associatedMasterId = "8163A9A7-FEB5-4584-B00B-7D9977804228";
layerId = "E521BCCE-32DC-4612-BFBA-CC4B51800BA9";
name = "Dec 3 17, 13:32";
paths = (
{
closed = 1;
nodes = (
"260 660 OFFCURVE",
"270 511 OFFCURVE",
"243 461 CURVE SMOOTH",
"226 430 OFFCURVE",
"189 402 OFFCURVE",
"172 380 CURVE SMOOTH",
"136 334 OFFCURVE",
"178 304 OFFCURVE",
"216 261 CURVE SMOOTH",
"254 218 OFFCURVE",
"256 180 OFFCURVE",
"258 104 CURVE",
"258 0 LINE",
"234 0 LINE",
"234 104 LINE",
"232 180 OFFCURVE",
"230 218 OFFCURVE",
"192 261 CURVE SMOOTH",
"154 304 OFFCURVE",
"112 334 OFFCURVE",
"148 380 CURVE SMOOTH",
"165 402 OFFCURVE",
"202 430 OFFCURVE",
"219 461 CURVE SMOOTH",
"246 511 OFFCURVE",
"236 660 OFFCURVE",
"237 700 CURVE",
"261 700 LINE"
);
}
);
width = 429;
},
{
associatedMasterId = "8163A9A7-FEB5-4584-B00B-7D9977804228";
layerId = "3756333F-0067-423B-8BD5-3C39807962FD";
name = "Dec 3 17, 13:33";
paths = (
{
closed = 1;
nodes = (
"335 8 LINE",
"320 31 OFFCURVE",
"176 188 OFFCURVE",
"141 242 CURVE SMOOTH",
"106 295 OFFCURVE",
"77 329 OFFCURVE",
"74 408 CURVE SMOOTH",
"71 494 OFFCURVE",
"75 604 OFFCURVE",
"71 687 CURVE",
"94 700 LINE",
"98 616 OFFCURVE",
"95 506 OFFCURVE",
"97 420 CURVE SMOOTH",
"99 335 OFFCURVE",
"130 308 OFFCURVE",
"165 255 CURVE",
"200 202 OFFCURVE",
"330 57 OFFCURVE",
"346 34 CURVE"
);
},
{
closed = 1;
nodes = (
"35 32 LINE",
"50 185 OFFCURVE",
"109 151 OFFCURVE",
"206 355 CURVE SMOOTH",
"234 414 OFFCURVE",
"141 456 OFFCURVE",
"185 544 CURVE",
"251 700 LINE",
"270 691 LINE",
"204 536 LINE",
"173 448 OFFCURVE",
"253 406 OFFCURVE",
"225 347 CURVE SMOOTH",
"128 143 OFFCURVE",
"66 153 OFFCURVE",
"52 0 CURVE"
);
}
);
visible = 1;
width = 381;
}
);
unicode = 0058;
},
{
glyphname = Y;
lastChange = "2017-12-03 13:32:40 +0000";
layers = (
{
layerId = "8163A9A7-FEB5-4584-B00B-7D9977804228";
paths = (
{
closed = 1;
nodes = (
"125 370 OFFCURVE",
"82 429 OFFCURVE",
"79 504 CURVE SMOOTH",
"75 616 OFFCURVE",
"54 700 OFFCURVE",
"54 700 CURVE",
"30 700 LINE",
"30 700 OFFCURVE",
"51 616 OFFCURVE",
"55 504 CURVE SMOOTH",
"58 429 OFFCURVE",
"103 371 OFFCURVE",
"118 345 CURVE SMOOTH",
"136 314 OFFCURVE",
"160 270 OFFCURVE",
"143 239 CURVE SMOOTH",
"116 189 OFFCURVE",
"126 40 OFFCURVE",
"125 0 CURVE",
"149 0 LINE",
"150 40 OFFCURVE",
"139 189 OFFCURVE",
"167 239 CURVE SMOOTH",
"191 282 OFFCURVE",
"163 289 OFFCURVE",
"163 320 CURVE",
"163 371 OFFCURVE",
"157 405 OFFCURVE",
"177 474 CURVE SMOOTH",
"209 583 OFFCURVE",
"217 651 OFFCURVE",
"217 700 CURVE",
"194 700 LINE",
"194 651 OFFCURVE",
"186 583 OFFCURVE",
"154 474 CURVE SMOOTH",
"137 416 OFFCURVE",
"139 383 OFFCURVE",
"140 344 CURVE"
);
}
);
width = 252;
},
{
associatedMasterId = "8163A9A7-FEB5-4584-B00B-7D9977804228";
layerId = "3DD9A677-83A6-448F-9146-A5FDA7BF8B27";
name = "Dec 3 17, 14:31";
paths = (
{
closed = 1;
nodes = (
"185 370 OFFCURVE",
"142 429 OFFCURVE",
"139 504 CURVE SMOOTH",
"135 616 OFFCURVE",
"114 700 OFFCURVE",
"114 700 CURVE",
"35 700 LINE",
"35 700 OFFCURVE",
"56 616 OFFCURVE",
"60 504 CURVE SMOOTH",
"63 429 OFFCURVE",
"108 371 OFFCURVE",
"123 345 CURVE SMOOTH",
"141 314 OFFCURVE",
"165 270 OFFCURVE",
"148 239 CURVE SMOOTH",
"121 189 OFFCURVE",
"131 40 OFFCURVE",
"130 0 CURVE",
"209 0 LINE",
"210 40 OFFCURVE",
"199 189 OFFCURVE",
"227 239 CURVE SMOOTH",
"251 282 OFFCURVE",
"279 289 OFFCURVE",
"279 320 CURVE",
"279 371 OFFCURVE",
"273 405 OFFCURVE",
"293 474 CURVE SMOOTH",
"325 583 OFFCURVE",
"333 651 OFFCURVE",
"333 700 CURVE",
"254 700 LINE",
"254 651 OFFCURVE",
"246 583 OFFCURVE",
"214 474 CURVE SMOOTH",
"197 416 OFFCURVE",
"199 383 OFFCURVE",
"200 344 CURVE"
);
}
);
width = 368;
},
{
associatedMasterId = "8163A9A7-FEB5-4584-B00B-7D9977804228";
layerId = "6D840E36-7DE1-45D1-A9A5-63780A1C601A";
name = "Dec 3 17, 14:31";
paths = (
{
closed = 1;
nodes = (
"275 660 OFFCURVE",
"285 511 OFFCURVE",
"258 461 CURVE SMOOTH",
"241 430 OFFCURVE",
"204 402 OFFCURVE",
"187 380 CURVE SMOOTH",
"151 334 OFFCURVE",
"193 304 OFFCURVE",
"231 261 CURVE SMOOTH",
"269 218 OFFCURVE",
"271 180 OFFCURVE",
"273 104 CURVE",
"273 0 LINE",
"249 0 LINE",
"249 104 LINE",
"247 180 OFFCURVE",
"245 218 OFFCURVE",
"207 261 CURVE SMOOTH",
"169 304 OFFCURVE",
"127 334 OFFCURVE",
"163 380 CURVE SMOOTH",
"180 402 OFFCURVE",
"217 430 OFFCURVE",
"234 461 CURVE SMOOTH",
"261 511 OFFCURVE",
"251 660 OFFCURVE",
"252 700 CURVE",
"276 700 LINE"
);
}
);
visible = 1;
width = 368;
}
);
unicode = 0059;
},
{
glyphname = Z;
lastChange = "2017-11-25 10:04:07 +0000";
layers = (
{
layerId = "8163A9A7-FEB5-4584-B00B-7D9977804228";
paths = (
{
closed = 1;
nodes = (
"288 -30 OFFCURVE",
"236 26 OFFCURVE",
"203 66 CURVE SMOOTH",
"170 106 OFFCURVE",
"168 131 OFFCURVE",
"128 151 CURVE SMOOTH",
"88 171 OFFCURVE",
"79 136 OFFCURVE",
"42 169 CURVE SMOOTH",
"13 195 OFFCURVE",
"20 249 OFFCURVE",
"60 292 CURVE",
"84 314 OFFCURVE",
"170 411 OFFCURVE",
"198 438 CURVE",
"213 451 OFFCURVE",
"227 462 OFFCURVE",
"231 476 CURVE SMOOTH",
"235 491 OFFCURVE",
"220 495 OFFCURVE",
"179 514 CURVE SMOOTH",
"158 524 OFFCURVE",
"125 561 OFFCURVE",
"109 579 CURVE SMOOTH",
"84 607 OFFCURVE",
"44 647 OFFCURVE",
"44 687 CURVE",
"102 750 LINE",
"123 672 OFFCURVE",
"235 595 OFFCURVE",
"256 568 CURVE SMOOTH",
"273 546 OFFCURVE",
"309 531 OFFCURVE",
"313 507 CURVE SMOOTH",
"317 483 OFFCURVE",
"316 465 OFFCURVE",
"301 441 CURVE",
"249 377 LINE",
"225 346 OFFCURVE",
"158 267 OFFCURVE",
"167 236 CURVE SMOOTH",
"172 219 OFFCURVE",
"181 228 OFFCURVE",
"203 215 CURVE SMOOTH",
"225 202 OFFCURVE",
"256 159 OFFCURVE",
"274 130 CURVE SMOOTH",
"292 101 OFFCURVE",
"331 37 OFFCURVE",
"357 20 CURVE",
"303 -45 LINE"
);
}
);
width = 382;
}
);
unicode = 005A;
},
